<?xml version="1.0" encoding="utf-8"?>
<!-- Generator: Adobe Illustrator 28.1.0, SVG Export Plug-In . SVG Version: 6.00 Build 0)  -->
<svg version="1.1" id="Layer_1" xmlns="http://www.w3.org/2000/svg" xmlns:xlink="http://www.w3.org/1999/xlink" x="0px" y="0px"
	 viewBox="0 0 16 16" style="enable-background:new 0 0 16 16;" xml:space="preserve">
<style type="text/css">
	.st0{fill:#808080;}
</style>
<g>
	<g transform="scale(5.12,5.12)">
		<path class="st0" d="M1.3,0.2c-0.6,0-1.1,0.5-1.1,1.1s0.5,1.1,1.1,1.1c0.2,0,0.4-0.1,0.6-0.2l0.8,0.8l0.3-0.3L2.2,1.9
			c0.1-0.2,0.2-0.4,0.2-0.6C2.4,0.7,1.9,0.2,1.3,0.2z M1.3,0.4c0.4,0,0.8,0.4,0.8,0.8S1.8,2.1,1.3,2.1S0.5,1.7,0.5,1.2
			S0.9,0.4,1.3,0.4z"/>
	</g>
</g>
</svg>
