<?xml version="1.0" encoding="utf-8"?>
<!-- Generator: Adobe Illustrator 28.1.0, SVG Export Plug-In . SVG Version: 6.00 Build 0)  -->
<svg version="1.1" id="Layer_1" xmlns="http://www.w3.org/2000/svg" xmlns:xlink="http://www.w3.org/1999/xlink" x="0px" y="0px"
	 viewBox="0 0 12.8 12.8" style="enable-background:new 0 0 12.8 12.8;" xml:space="preserve">
<style type="text/css">
	.st0{fill:#808080;}
</style>
<path class="st0" d="M5.3,0C2.4,0,0,2.4,0,5.3s2.4,5.3,5.3,5.3c1.3,0,2.4-0.4,3.4-1.2l3.2,3.2c0.1,0.1,0.3,0.2,0.5,0.1
	s0.3-0.2,0.4-0.4s0-0.4-0.1-0.5L9.4,8.7c0.8-0.9,1.2-2.1,1.2-3.4C10.7,2.4,8.3,0,5.3,0z M5.3,1.1c2.4,0,4.3,1.9,4.3,4.3
	S7.7,9.6,5.3,9.6S1.1,7.7,1.1,5.3S3,1.1,5.3,1.1z"/>
</svg>
