<?xml version="1.0" encoding="UTF-8"?>
<svg id="Layer_1" data-name="Layer 1" xmlns="http://www.w3.org/2000/svg" viewBox="0 0 12.81 12.81">
  <defs>
    <style>
      .cls-1 {
        fill: #d9d9d9;
        stroke-width: 0px;
      }
    </style>
  </defs>
  <path class="cls-1" d="M5.33,0C2.39,0,0,2.39,0,5.33s2.39,5.33,5.33,5.33c1.28,0,2.45-.45,3.37-1.21l3.18,3.18c.13.14.33.2.52.15s.33-.19.38-.38,0-.39-.15-.52l-3.18-3.18c.75-.92,1.21-2.09,1.21-3.37C10.67,2.39,8.27,0,5.33,0ZM5.33,1.07c2.36,0,4.27,1.9,4.27,4.27s-1.9,4.27-4.27,4.27S1.07,7.7,1.07,5.33,2.97,1.07,5.33,1.07Z"/>
</svg>