<?xml version="1.0" encoding="utf-8"?>
<!-- Generator: Adobe Illustrator 28.1.0, SVG Export Plug-In . SVG Version: 6.00 Build 0)  -->
<svg version="1.1" id="Layer_1" xmlns="http://www.w3.org/2000/svg" xmlns:xlink="http://www.w3.org/1999/xlink" x="0px" y="0px"
	 viewBox="0 0 747 747" style="enable-background:new 0 0 747 747;" xml:space="preserve">
<style type="text/css">
	.st0{display:none;fill:#FFFFFF;stroke:#08254F;stroke-width:18;stroke-miterlimit:10;}
	.st1{display:none;}
	.st2{display:inline;fill:#08254F;}
	.st3{display:inline;}
	.st4{fill:#08254F;}
	.st5{display:none;fill:none;stroke:#08254F;stroke-width:18;stroke-miterlimit:10;}
	.st6{display:none;fill:#08254F;}
	.st7{fill:none;stroke:#08254F;stroke-width:22;stroke-miterlimit:10;}
	.st8{fill:#FFFFFF;stroke:#08254F;stroke-width:10;stroke-miterlimit:10;}
	.st9{fill:none;stroke:#08254F;stroke-width:22.4636;stroke-miterlimit:10;}
	.st10{clip-path:url(#SVGID_00000076597482167552827550000018195635076134099623_);}
	.st11{fill:none;}
	.st12{font-family:'Montserrat-SemiBold';}
	.st13{font-size:150px;}
	.st14{letter-spacing:-6;}
	.st15{letter-spacing:-1;}
</style>
<image style="display:none;overflow:visible;opacity:0.5;" width="736" height="736" xlink:href="../Downloads/bddc712a44323a952ced6730f1a99746.jpeg"  transform="matrix(0.7228 0 0 0.7228 -2473.4463 -264.5934)">
</image>
<path class="st0" d="M-2142.7,584.3c4.9,9.9,11.1,18.7,18.8,24.4h46.1h46.1"/>
<g class="st1">
	<path class="st2" d="M-2252.7,580.2c-5.2-16.9-8-34.9-8-53.5c0-100.5,81.7-182.2,182.2-182.2c100.5,0,182.2,81.7,182.2,182.2
		c0,23.6-4.5,46.1-12.7,66.8c8.3,6.2,14.3,9.1,20,10.4c9.8-23.8,15.1-49.9,15.1-77.2c0-112.8-91.8-204.6-204.6-204.6
		s-204.6,91.8-204.6,204.6c0,21,3.2,41.2,9.1,60.3C-2269,584.1-2261.6,581-2252.7,580.2z"/>
	<path class="st2" d="M-2194.5,606.9c-15.8-22.8-25.1-50.4-25.1-80.1c0-77.7,63.3-141,141-141s141,63.3,141,141
		c0,17.1-3.1,33.6-8.7,48.8c1.5,0.1,15.4,3,21.5,6.5c6.2-17.3,9.6-35.9,9.6-55.3c0-90.1-73.3-163.5-163.5-163.5
		c-90.1,0-163.5,73.3-163.5,163.5c0,19.8,3.6,38.9,10.1,56.5C-2227,585.1-2200.4,604.5-2194.5,606.9z"/>
</g>
<g class="st1">
	<g class="st3">
		<path class="st4" d="M-2475.9,777.2c1.2-2.8,2.9-4.6,5.2-5.5c2.3-0.9,4.8-0.8,7.8,0.2c3,1.1,5.1,2.6,6.3,4.7
			c1.2,2.1,1.4,4.6,0.6,7.4c-0.6,2.1-1.5,3.7-2.7,4.8c-1.2,1.1-2.6,1.8-4.4,2.1c-1.7,0.3-3.7,0-5.9-0.8c-2.3-0.8-4-1.8-5.2-3
			c-1.2-1.2-2-2.6-2.4-4.3C-2477,781-2476.8,779.2-2475.9,777.2z M-2470.1,779.5c-0.7,1.8-0.8,3.2-0.3,4.2c0.4,1,1.3,1.8,2.6,2.2
			c1.3,0.5,2.4,0.4,3.4-0.1c1-0.5,1.8-1.8,2.4-3.8c0.5-1.7,0.6-3,0.1-4c-0.5-1-1.3-1.7-2.5-2.1c-1.2-0.4-2.2-0.4-3.2,0.2
			C-2468.6,776.6-2469.5,777.7-2470.1,779.5z"/>
		<path class="st4" d="M-2450.2,776.1c2.8,0.8,5.7,1.5,8.5,2.1c1.7,0.4,3,0.9,4,1.5c1,0.7,1.7,1.5,2.2,2.4c0.5,1,0.9,2,1,3.2
			c0.1,1.2,0.1,2.4-0.1,3.6c-0.3,2-0.8,3.4-1.5,4.4c-0.7,1-1.5,1.8-2.5,2.3c-1,0.6-2.1,0.9-3.1,0.9c-1.5,0.1-2.8,0-3.9-0.3
			c-3.1-0.7-6.3-1.5-9.4-2.3C-2453.4,788.1-2451.8,782.1-2450.2,776.1z M-2445.4,781.7c-0.8,3.3-1.5,6.6-2.3,9.9
			c0.5,0.1,1,0.2,1.5,0.4c1.3,0.3,2.2,0.4,2.9,0.2c0.6-0.1,1.1-0.5,1.6-1.1c0.4-0.6,0.8-1.6,1.1-3.1c0.4-1.9,0.3-3.3-0.2-4.2
			c-0.5-0.8-1.5-1.4-3.1-1.8C-2444.4,781.9-2444.9,781.8-2445.4,781.7z"/>
		<path class="st4" d="M-2431.6,780.1c2.1,0.3,4.3,0.7,6.5,0.9c1,2.2,2.1,4.5,3.2,6.7c1.5-1.9,3-3.9,4.5-5.9
			c2.2,0.2,4.3,0.3,6.5,0.4c-2.6,3.5-5.4,6.9-8.3,10.3c-0.2,2.6-0.4,5.2-0.7,7.7c-2.2-0.2-4.3-0.4-6.4-0.7c0.3-2.6,0.6-5.1,0.9-7.7
			C-2427.7,788-2429.8,784-2431.6,780.1z"/>
		<path class="st4" d="M-2410.4,794.7c2,0,4-0.1,6-0.2c0.1,0.9,0.4,1.6,0.8,2c0.6,0.8,1.6,1.1,2.8,1.1c0.9,0,1.6-0.2,2.1-0.6
			c0.5-0.4,0.7-0.8,0.7-1.4c0-0.5-0.3-0.9-0.7-1.3c-0.5-0.4-1.5-0.7-3.2-1c-2.7-0.6-4.6-1.4-5.8-2.3c-1.1-1-1.7-2.2-1.6-3.6
			c0-1,0.4-1.8,1-2.7c0.6-0.8,1.5-1.5,2.6-1.9c1.1-0.5,2.7-0.7,4.7-0.7c2.4,0,4.3,0.4,5.6,1.2c1.3,0.8,2.2,2.2,2.5,4.1
			c-1.9,0.2-3.8,0.4-5.7,0.5c-0.2-0.8-0.5-1.4-1-1.8c-0.5-0.4-1.1-0.6-2-0.5c-0.7,0-1.2,0.1-1.6,0.4c-0.4,0.3-0.5,0.6-0.5,1
			c0,0.3,0.1,0.6,0.4,0.8c0.3,0.2,1,0.5,2,0.7c2.7,0.5,4.6,1,5.8,1.5c1.2,0.5,2.1,1.2,2.6,1.9c0.6,0.8,0.9,1.7,0.9,2.7
			c0.1,1.2-0.2,2.3-0.9,3.3c-0.7,1-1.7,1.9-3,2.4c-1.3,0.6-3,0.9-5,0.9c-3.6,0-6-0.6-7.3-1.9
			C-2409.6,798.1-2410.3,796.6-2410.4,794.7z"/>
		<path class="st4" d="M-2389.7,794.4c2-0.2,3.9-0.5,5.9-0.8c0.2,0.9,0.5,1.5,1,1.9c0.7,0.7,1.7,1,2.9,0.8c0.9-0.1,1.6-0.4,2-0.8
			c0.4-0.4,0.6-0.9,0.6-1.4c-0.1-0.5-0.3-0.9-0.9-1.2c-0.5-0.3-1.6-0.5-3.3-0.7c-2.8-0.3-4.8-0.8-6-1.7c-1.2-0.8-1.9-2-2-3.4
			c-0.1-1,0.2-1.9,0.7-2.8c0.5-0.9,1.3-1.6,2.4-2.2c1.1-0.6,2.6-1,4.6-1.2c2.4-0.3,4.3-0.1,5.7,0.6c1.4,0.7,2.4,1.9,2.9,3.8
			c-1.9,0.4-3.7,0.8-5.6,1.1c-0.3-0.8-0.6-1.4-1.2-1.7c-0.5-0.3-1.2-0.4-2-0.3c-0.7,0.1-1.2,0.3-1.5,0.6c-0.3,0.3-0.5,0.7-0.4,1.1
			c0,0.3,0.2,0.5,0.5,0.7c0.3,0.2,1,0.4,2.1,0.5c2.7,0.2,4.7,0.5,5.9,0.9c1.2,0.4,2.2,0.9,2.8,1.6c0.7,0.7,1.1,1.6,1.2,2.6
			c0.2,1.2,0,2.3-0.6,3.4c-0.6,1.1-1.5,2-2.7,2.7c-1.2,0.7-2.9,1.2-4.9,1.4c-3.5,0.4-6.1,0-7.5-1.1
			C-2388.5,797.7-2389.4,796.2-2389.7,794.4z"/>
		<path class="st4" d="M-2370.3,779.4c5.2-0.9,10.3-2.1,15.4-3.5c0.3,1.3,0.7,2.5,1,3.8c-3.3,0.9-6.5,1.7-9.8,2.4
			c0.2,1,0.4,1.9,0.6,2.9c3.1-0.7,6.2-1.4,9.3-2.3c0.3,1.2,0.7,2.4,1,3.7c-3.1,0.8-6.3,1.6-9.5,2.3c0.3,1.2,0.5,2.4,0.8,3.6
			c3.6-0.8,7.1-1.6,10.7-2.6c0.4,1.4,0.7,2.7,1.1,4.1c-5.7,1.6-11.5,2.9-17.3,4C-2368,791.6-2369.2,785.5-2370.3,779.4z"/>
		<path class="st4" d="M-2353.1,775.4c2.1-0.6,4.2-1.2,6.3-1.9c1.9,1.6,3.8,3.1,5.7,4.7c0.6-2.4,1.1-4.8,1.6-7.2
			c2.1-0.8,4.1-1.6,6.1-2.4c-0.9,4.3-2,8.6-3.3,12.9c0.9,2.4,1.8,4.9,2.7,7.3c-2.1,0.8-4.1,1.5-6.2,2.2c-0.8-2.5-1.6-4.9-2.4-7.4
			C-2346.2,780.9-2349.7,778.2-2353.1,775.4z"/>
	</g>
</g>
<line class="st5" x1="-2019.8" y1="506.8" x2="-2135.7" y2="506.8"/>
<g>
	<g>
		<g>
			<path class="st4" d="M190,324.8c-1.5-9.4-2.3-19.1-2.3-28.9c0-102.4,83.3-185.7,185.7-185.7c102.4,0,185.7,83.3,185.7,185.7
				c0,14.5-1.7,28.6-4.8,42.2c9.6,7.3,16.3,10.9,22.7,12.3c4.7-17.4,7.2-35.7,7.2-54.5c0-116.2-94.5-210.7-210.7-210.7
				c-116.2,0-210.7,94.5-210.7,210.7c0,12.5,1.1,24.7,3.2,36.6C171.6,329.1,179.9,325.5,190,324.8z"/>
			<path class="st6" d="M239.6,346.9c-6.1-15.9-9.4-33.1-9.4-51.1c0-79,64.3-143.3,143.3-143.3s143.3,64.3,143.3,143.3
				c0,8.1-0.7,16.1-2,23.9c2.2,0.1,4.1,0.2,5.6,0.5c4.4,0.6,9.1,1.9,13.9,4.1c1.6-9.2,2.5-18.7,2.5-28.4
				c0-90.1-73.3-163.3-163.3-163.3c-90.1,0-163.3,73.3-163.3,163.3c0,11.3,1.2,22.4,3.4,33.1c4.6,2,9.4,4.9,14.2,8.9
				C232.2,341.5,236.1,344.5,239.6,346.9z"/>
		</g>
		<g>
			<path class="st7" d="M314.8,275.5l-8.7-76.9c0,0,59.2-38,132.6,0l-8,76.9"/>
			<path class="st7" d="M418.9,377.4c30.9-22.8,37.1-94.4,37.1-94.4c-38.4-5-83.2-46.1-83.2-46.1s-44.8,41.1-83.2,46.1
				c0,0,3.5,40.2,18.3,70"/>
			<line class="st8" x1="373.5" y1="181.8" x2="373.5" y2="118.4"/>
			<path class="st9" d="M325.1,354.7"/>
			<g>
				<defs>
					<circle id="SVGID_1_" cx="371.5" cy="295.8" r="204.2"/>
				</defs>
				<clipPath id="SVGID_00000099656972491940230410000014205386353497415565_">
					<use xlink:href="#SVGID_1_"  style="overflow:visible;"/>
				</clipPath>
				<g style="clip-path:url(#SVGID_00000099656972491940230410000014205386353497415565_);">
					<path class="st7" d="M167.3,355.8c6.3-3.8,16.1-8.2,28.3-8.1c2.5,0,4.6,0.2,6.3,0.5c8.4,1.2,17.6,4.7,27,12.5
						c14.5,12,22.9,16.4,31.2,17.7c12.8,1.9,29.5-6.8,62.9-24.1c0,0,0,0,0,0c12.3-6.4,27.2-9.7,38.6-7.5c7.8,1.5,16.1,5,24.4,11.9
						c20.7,17.1,35.3,19.6,40,19.7c10.3,0.2,14.9-5.1,54.1-26.1c0.3-0.2,4.4-2.4,10.3-4.7c10.8-4.3,16.5-4.6,19.4-4.6
						c2.5,0,4.6,0.2,6.3,0.5c8.4,1.2,17.6,4.7,27,12.5c14.5,12,22.9,16.4,31.2,17.7"/>
					<path class="st7" d="M167.3,413.5c6.3-3.8,16.1-8.2,28.3-8.1c2.5,0,4.6,0.2,6.3,0.5c8.4,1.2,17.6,4.7,27,12.5
						c14.5,12,22.9,16.4,31.2,17.7c12.8,1.9,29.5-6.8,62.9-24.1c0,0,0,0,0,0c12.3-6.4,27.2-9.7,38.6-7.5c7.8,1.5,16.1,5,24.4,11.9
						c20.7,17.1,35.3,19.6,40,19.7c10.3,0.2,14.9-5.1,54.1-26.1c0.3-0.2,4.4-2.4,10.3-4.7c10.8-4.3,16.5-4.6,19.4-4.6
						c2.5,0,4.6,0.2,6.3,0.5c8.4,1.2,17.6,4.7,27,12.5c14.5,12,22.9,16.4,31.2,17.7"/>
					<path class="st7" d="M167.3,471.3c6.3-3.8,16.1-8.2,28.3-8.1c2.5,0,4.6,0.2,6.3,0.5c8.4,1.2,17.6,4.7,27,12.5
						c14.5,12,22.9,16.4,31.2,17.7c12.8,1.9,29.5-6.8,62.9-24.1c0,0,0,0,0,0c12.3-6.4,27.2-9.7,38.6-7.5c7.8,1.5,16.1,5,24.4,11.9
						c20.7,17.1,35.3,19.6,40,19.7c10.3,0.2,14.9-5.1,54.1-26.1c0.3-0.2,4.4-2.4,10.3-4.7c10.8-4.3,16.5-4.6,19.4-4.6
						c2.5,0,4.6,0.2,6.3,0.5c8.4,1.2,17.6,4.7,27,12.5c14.5,12,22.9,16.4,31.2,17.7"/>
				</g>
			</g>
			<path id="SVGID_x5F_00000001649321547740831930000017346979818033096072_x5F_" class="st11" d="M576.6,295.8
				c0,113.3-91.8,205.1-205.1,205.1s-205.1-91.8-205.1-205.1S258.2,90.7,371.5,90.7S576.6,182.6,576.6,295.8z"/>
			<text class="st1">			<textPath  xlink:href="#SVGID_x5F_00000001649321547740831930000017346979818033096072_x5F_" startOffset="5448.043%"  class="st3">
<tspan  class="st4" style="font-family:'Montserrat-Bold'; font-size:35px; letter-spacing:10;">ODYSSEY MAGAZINE</tspan>			</textPath>
</text>
			<path class="st4" d="M373.5,118.4v34.5c0,0,35.2-16.5,55.3-17.3C428.8,135.7,406.3,119.5,373.5,118.4z"/>
			<path class="st5" d="M195.5,347.7c2.5,0,4.6,0.2,6.3,0.5c8.4,1.2,17.6,4.7,27,12.5c14.5,12,22.9,16.4,31.2,17.7
				c12.8,1.9,29.5-6.8,62.9-24.1c0,0,0,0,0,0c12.3-6.4,27.2-9.7,38.6-7.5c7.8,1.5,16.1,5,24.4,11.9c20.7,17.1,35.3,19.6,40,19.7
				c10.3,0.2,14.9-5.1,54.1-26.1c0.3-0.2,4.4-2.4,10.3-4.7c10.8-4.3,16.5-4.6,19.4-4.6c2.5,0,4.6,0.2,6.3,0.5
				c8.4,1.2,17.6,4.7,27,12.5c6.3,5.2,11.5,9,16,11.8c8.6-22.2,13.3-46.4,13.3-71.7C572.4,186,483.3,97,373.5,97
				s-198.9,89-198.9,198.9c0,18.6,2.6,36.6,7.3,53.6C186.1,348.3,190.6,347.6,195.5,347.7z"/>
		</g>
	</g>
	<rect x="-17" y="516.9" class="st11" width="780.9" height="145.1"/>
	<text transform="matrix(1 0 0 1 13.6528 644.382)"><tspan x="0" y="0" class="st4 st12 st13 st14">OD</tspan><tspan x="238.2" y="0" class="st4 st12 st13 st15">YSSEY</tspan></text>
</g>
</svg>
