<?xml version="1.0" encoding="utf-8"?>
<!-- Generator: Adobe Illustrator 28.1.0, SVG Export Plug-In . SVG Version: 6.00 Build 0)  -->
<svg version="1.1" id="Layer_1" xmlns="http://www.w3.org/2000/svg" xmlns:xlink="http://www.w3.org/1999/xlink" x="0px" y="0px"
	 viewBox="0 0 16 16" style="enable-background:new 0 0 16 16;" xml:space="preserve">
<style type="text/css">
	.st0{display:none;fill:#FFFFFF;stroke:#08254F;stroke-width:18;stroke-miterlimit:10;}
	.st1{display:none;}
	.st2{display:inline;fill:#08254F;}
	.st3{display:inline;}
	.st4{fill:#08254F;}
	.st5{display:none;fill:none;stroke:#08254F;stroke-width:18;stroke-miterlimit:10;}
	.st6{display:none;fill:#08254F;}
	.st7{fill:none;stroke:#08254F;stroke-width:22;stroke-miterlimit:10;}
	.st8{fill:#FFFFFF;stroke:#08254F;stroke-width:10;stroke-miterlimit:10;}
	.st9{fill:none;stroke:#08254F;stroke-width:22.4636;stroke-miterlimit:10;}
	.st10{clip-path:url(#SVGID_00000172436150582756569000000018399670160061283513_);}
	.st11{fill:#FFFFFF;}
	.st12{fill:none;stroke:#08254F;stroke-width:0.8527;stroke-miterlimit:10;}
	.st13{clip-path:url(#SVGID_00000111897582062966358770000013724458909498969989_);}
	.st14{fill:none;}
	.st15{display:none;fill:none;stroke:#08254F;stroke-width:0.6833;stroke-miterlimit:10;}
</style>
<g>
	<g>
		<path class="st4" d="M1,9.2C1,8.8,0.9,8.5,0.9,8.1c0-3.9,3.2-7.1,7.1-7.1c3.9,0,7.1,3.2,7.1,7.1c0,0.6-0.1,1.1-0.2,1.6
			c0.4,0.3,0.6,0.4,0.9,0.5C15.9,9.5,16,8.8,16,8.1c0-4.4-3.6-8-8-8c-4.4,0-8,3.6-8,8C0,8.6,0,9,0.1,9.5C0.3,9.4,0.7,9.2,1,9.2z"/>
		<path class="st6" d="M2.9,10C2.7,9.4,2.6,8.8,2.6,8.1c0-3,2.4-5.4,5.4-5.4s5.4,2.4,5.4,5.4c0,0.3,0,0.6-0.1,0.9c0.1,0,0.2,0,0.2,0
			c0.2,0,0.3,0.1,0.5,0.2c0.1-0.4,0.1-0.7,0.1-1.1c0-3.4-2.8-6.2-6.2-6.2c-3.4,0-6.2,2.8-6.2,6.2c0,0.4,0,0.9,0.1,1.3
			c0.2,0.1,0.4,0.2,0.5,0.3C2.6,9.8,2.8,10,2.9,10z"/>
	</g>
	<g>
		<path class="st4" d="M5.4,7.4L5,4.2l0.2-0.1c0,0,0.6-0.4,1.6-0.6C7.7,3.3,9.1,3.2,10.7,4l0.3,0.1l-0.3,3.2L9.8,7.3L10,4.7
			c-1-0.4-2-0.6-3-0.4C6.5,4.4,6.1,4.5,5.9,4.7l0.3,2.6L5.4,7.4z"/>
		<path class="st4" d="M10,11.5l-0.5-0.7c0.7-0.5,1.1-2,1.2-2.9C9.6,7.7,8.5,6.8,8,6.4C7.5,6.8,6.4,7.7,5.3,8
			c0.1,0.5,0.2,1.4,0.6,2.1l-0.7,0.4C4.5,9.3,4.4,7.7,4.4,7.7l0-0.4l0.4-0.1C6.1,7,7.7,5.6,7.7,5.6L8,5.3l0.3,0.3
			c0,0,1.6,1.5,2.9,1.6l0.4,0.1l0,0.4c0,0-0.1,0.7-0.3,1.5C11,10.3,10.5,11.1,10,11.5z"/>
		<g>
			<rect x="7.8" y="1.4" class="st4" width="0.4" height="2.4"/>
		</g>
		<g>
			<defs>
				<circle id="SVGID_00000054946625783994091860000014684760984698345353_" cx="7.9" cy="8.1" r="7.8"/>
			</defs>
			<clipPath id="SVGID_00000048497252626065843850000012412645785083169427_">
				<use xlink:href="#SVGID_00000054946625783994091860000014684760984698345353_"  style="overflow:visible;"/>
			</clipPath>
			<g style="clip-path:url(#SVGID_00000048497252626065843850000012412645785083169427_);">
				<path class="st4" d="M3.8,11.7c-0.1,0-0.1,0-0.2,0c-0.4-0.1-0.8-0.3-1.4-0.8c-0.3-0.2-0.5-0.3-0.8-0.4c-0.1,0-0.1,0-0.2,0
					c-0.3,0-0.6,0.1-0.9,0.2L0,10c0.4-0.2,0.8-0.4,1.3-0.4c0,0,0,0,0,0c0.1,0,0.2,0,0.3,0C2,9.7,2.4,9.9,2.8,10.2
					c0.5,0.4,0.8,0.5,1,0.6c0.4,0.1,1-0.3,2.1-0.9l0,0c0.6-0.3,1.2-0.4,1.7-0.3C8,9.7,8.4,9.9,8.7,10.2c0.8,0.6,1.2,0.7,1.3,0.7
					c0.1,0,0.2,0,0.8-0.4c0.2-0.1,0.6-0.3,1.1-0.6c0,0,0.2-0.1,0.4-0.2c0.4-0.1,0.6-0.2,0.9-0.2c0.1,0,0.2,0,0.3,0
					c0.4,0.1,0.9,0.3,1.2,0.6c0.5,0.4,0.8,0.5,1,0.6l-0.1,0.8c-0.4-0.1-0.8-0.3-1.4-0.8c-0.3-0.2-0.5-0.3-0.8-0.4
					c-0.1,0-0.1,0-0.2,0c0,0,0,0,0,0c-0.2,0-0.4,0.1-0.6,0.1c-0.2,0.1-0.3,0.2-0.3,0.2c-0.5,0.2-0.8,0.4-1,0.6
					c-0.6,0.3-0.8,0.5-1.2,0.5c0,0,0,0,0,0c-0.2,0-0.8-0.1-1.8-0.8c-0.2-0.2-0.5-0.3-0.7-0.4c-0.3-0.1-0.8,0-1.2,0.2l0,0
					C5.1,11.3,4.4,11.7,3.8,11.7z"/>
				<path class="st4" d="M3.8,13.9c-0.1,0-0.1,0-0.2,0c-0.4-0.1-0.8-0.3-1.4-0.8c-0.3-0.2-0.5-0.3-0.8-0.4c-0.1,0-0.1,0-0.2,0
					c0,0,0,0,0,0c-0.3,0-0.6,0.1-0.8,0.2L0,12.2c0.4-0.2,0.9-0.4,1.3-0.4c0.1,0,0.2,0,0.3,0c0.4,0.1,0.9,0.3,1.2,0.6
					c0.5,0.4,0.8,0.5,1,0.6c0.4,0.1,1-0.3,2.1-0.9l0,0c0.6-0.3,1.2-0.4,1.7-0.3c0.4,0.1,0.8,0.3,1.1,0.5C9.5,13,10,13,10,13
					c0.1,0,0.2,0,0.8-0.4c0.2-0.1,0.6-0.3,1.1-0.6c0,0,0.2-0.1,0.4-0.2c0.4-0.1,0.6-0.2,0.9-0.2c0.1,0,0.2,0,0.3,0
					c0.4,0.1,0.9,0.3,1.2,0.6c0.5,0.4,0.8,0.5,1,0.6l-0.1,0.8c-0.4-0.1-0.8-0.3-1.4-0.8c-0.3-0.2-0.5-0.3-0.8-0.4
					c-0.1,0-0.1,0-0.2,0c0,0,0,0,0,0c-0.2,0-0.4,0.1-0.6,0.1c-0.2,0.1-0.3,0.2-0.3,0.2c-0.5,0.2-0.8,0.4-1,0.6
					c-0.6,0.3-0.8,0.5-1.2,0.5c0,0,0,0,0,0c-0.2,0-0.8-0.1-1.8-0.8c-0.2-0.2-0.5-0.3-0.7-0.4c-0.3-0.1-0.8,0-1.2,0.2l0,0
					C5.1,13.5,4.4,13.9,3.8,13.9z"/>
				<path class="st4" d="M3.8,16.1c-0.1,0-0.1,0-0.2,0c-0.4-0.1-0.8-0.3-1.4-0.8c-0.3-0.2-0.5-0.3-0.8-0.4c-0.1,0-0.1,0-0.2,0
					c0,0,0,0,0,0c-0.3,0-0.6,0.1-0.8,0.2L0,14.4C0.4,14.2,0.8,14,1.2,14c0.1,0,0.2,0,0.3,0c0.4,0.1,0.9,0.3,1.2,0.6
					c0.5,0.4,0.8,0.5,1,0.6c0.4,0.1,1-0.3,2.1-0.9l0,0C6.5,14,7.1,13.9,7.6,14c0.4,0.1,0.8,0.3,1.1,0.5c0.8,0.6,1.2,0.7,1.3,0.7
					c0.1,0,0.2,0,0.8-0.4c0.2-0.1,0.6-0.3,1.1-0.6c0,0,0.2-0.1,0.4-0.2c0.4-0.1,0.6-0.2,0.9-0.2c0.1,0,0.2,0,0.3,0
					c0.4,0.1,0.9,0.3,1.2,0.6c0.5,0.4,0.8,0.5,1,0.6l-0.1,0.8c-0.4-0.1-0.8-0.3-1.4-0.8c-0.3-0.2-0.5-0.3-0.8-0.4
					c-0.1,0-0.1,0-0.2,0c0,0,0,0,0,0c-0.2,0-0.4,0.1-0.6,0.1c-0.2,0.1-0.3,0.2-0.3,0.2c-0.5,0.2-0.8,0.4-1,0.6
					C10.6,15.9,10.4,16,10,16c0,0,0,0,0,0c-0.2,0-0.8-0.1-1.8-0.8C8,15,7.7,14.9,7.5,14.8c-0.3-0.1-0.8,0-1.2,0.2l0,0
					C5.1,15.7,4.4,16.1,3.8,16.1z"/>
			</g>
		</g>
		<path id="SVGID_x5F_00000161604745775733308330000018172579811437474737_x5F_" class="st14" d="M15.7,8.1c0,4.3-3.5,7.8-7.8,7.8
			s-7.8-3.5-7.8-7.8s3.5-7.8,7.8-7.8S15.7,3.8,15.7,8.1z"/>
		<text class="st1">		<textPath  xlink:href="#SVGID_x5F_00000161604745775733308330000018172579811437474737_x5F_" startOffset="5448.043%"  class="st3">
<tspan  class="st4" style="font-family:'Montserrat-Bold'; font-size:1.3286px; letter-spacing:10;">ODYSSEY MAGAZINE</tspan>		</textPath>
</text>
		<path class="st4" d="M8,1.4v1.3c0,0,1.3-0.6,2.1-0.7C10.1,2,9.2,1.4,8,1.4z"/>
		<path class="st15" d="M1.2,10.1c0.1,0,0.2,0,0.2,0c0.3,0,0.7,0.2,1,0.5c0.5,0.5,0.9,0.6,1.2,0.7c0.5,0.1,1.1-0.3,2.4-0.9
			c0,0,0,0,0,0c0.5-0.2,1-0.4,1.5-0.3c0.3,0.1,0.6,0.2,0.9,0.5c0.8,0.7,1.3,0.7,1.5,0.7c0.4,0,0.6-0.2,2.1-1c0,0,0.2-0.1,0.4-0.2
			c0.4-0.2,0.6-0.2,0.7-0.2c0.1,0,0.2,0,0.2,0c0.3,0,0.7,0.2,1,0.5c0.2,0.2,0.4,0.3,0.6,0.4c0.3-0.8,0.5-1.8,0.5-2.7
			c0-4.2-3.4-7.5-7.5-7.5S0.5,3.9,0.5,8.1c0,0.7,0.1,1.4,0.3,2C0.9,10.1,1.1,10.1,1.2,10.1z"/>
	</g>
</g>
</svg>
