<svg width="432" height="24" viewBox="0 0 432 24" fill="none" xmlns="http://www.w3.org/2000/svg">
<path d="M313.043 23.6116C311.905 23.6116 310.978 22.691 310.964 21.5484C310.95 20.4011 311.858 19.4621 312.997 19.4389C317.308 19.3464 321.291 17.1953 322.674 14.2069C323.569 12.2825 323.223 10.3072 321.646 8.34579C316.907 2.43838 307.271 4.49696 299.406 6.95336C293.62 8.7575 287.88 11.0104 282.325 13.1892C269.287 18.3056 255.797 23.5931 240.546 23.6162C239.416 23.6162 238.49 22.7095 238.467 21.5715C238.444 20.4335 239.333 19.4852 240.463 19.4436C244.566 19.2817 248.337 17.1352 249.633 14.2208C250.504 12.2594 250.122 10.1962 248.517 8.25327C243.69 2.40138 234.165 4.49233 226.401 6.95799C220.791 8.74362 215.217 10.9317 209.823 13.0504C196.614 18.2362 182.954 23.5931 167.486 23.6162C166.347 23.6162 165.421 22.6956 165.407 21.553C165.393 20.4104 166.301 19.4667 167.44 19.4436C171.76 19.351 175.748 17.1953 177.135 14.2023C178.03 12.2779 177.684 10.3118 176.112 8.34579C171.377 2.43838 161.742 4.50158 153.867 6.95336C148.086 8.7575 142.341 11.0104 136.79 13.1846C123.743 18.3009 110.249 23.5931 94.984 23.6116C93.8544 23.6116 92.9277 22.7049 92.9047 21.5669C92.8816 20.4289 93.7714 19.4806 94.901 19.4389C99.0134 19.2724 102.789 17.1259 104.085 14.2116C104.956 12.2501 104.569 10.1869 102.969 8.24864C98.1374 2.39675 88.6125 4.47845 80.8533 6.95336C75.2471 8.739 69.6732 10.9271 64.2838 13.0412C51.0752 18.2269 37.4148 23.5885 21.9517 23.6116C20.813 23.6116 19.8863 22.6956 19.8725 21.553C19.8586 20.4104 20.7623 19.4667 21.901 19.4389C27.1291 19.314 30.8358 16.358 31.7902 13.4992C32.5601 11.1908 31.6565 8.92866 29.1761 6.94874C22.6064 1.70748 11.2465 5.78761 3.73169 8.48919L3.08625 8.72049C2.00282 9.10445 0.813354 8.54471 0.430696 7.45759C0.0434287 6.37048 0.605889 5.17698 1.68932 4.79302L2.33015 4.56172C10.7117 1.55019 23.3809 -2.99717 31.7625 3.68278C35.626 6.76369 37.0736 10.8253 35.732 14.8268C35.2986 16.1175 34.6025 17.3156 33.7034 18.3888C43.694 16.6495 53.0346 12.981 62.7716 9.15996C68.2256 7.01812 73.8594 4.8069 79.5993 2.97963C88.6033 0.116131 99.7603 -2.18299 106.178 5.59332C108.783 8.74825 109.405 12.5138 107.888 15.9185C107.487 16.8252 106.948 17.6718 106.293 18.4536C116.261 16.7559 125.573 13.1059 135.278 9.29875C140.898 7.09677 146.712 4.81615 152.636 2.97038C161.769 0.125385 173.055 -2.13673 179.358 5.73209C181.93 8.94717 182.483 12.5786 180.911 15.9648C180.515 16.8206 179.994 17.6255 179.371 18.3657C189.316 16.6171 198.62 12.9625 208.31 9.15996C213.764 7.01812 219.408 4.8069 225.143 2.97963C234.147 0.111505 245.299 -2.18299 251.717 5.58869C254.322 8.74362 254.944 12.5092 253.427 15.9232C253.026 16.8299 252.487 17.6764 251.832 18.4582C261.795 16.7651 271.108 13.1106 280.812 9.30337C286.432 7.09677 292.246 4.82078 298.17 2.97038C307.294 0.125385 318.576 -2.13673 324.887 5.73209C327.464 8.94717 328.022 12.5832 326.446 15.9741C326.049 16.8252 325.533 17.6302 324.91 18.3703C334.855 16.6217 344.158 12.9672 353.849 9.16459C359.303 7.02275 364.942 4.81152 370.677 2.97963C375.96 1.29576 389.999 -3.17758 397.246 5.58869C399.851 8.739 400.483 12.4999 398.971 15.9047C398.514 16.9316 397.883 17.8846 397.108 18.7543C407.666 17.459 418.426 14.3642 428.744 9.61331C429.795 9.13684 431.022 9.59481 431.501 10.6403C431.981 11.6858 431.524 12.9255 430.478 13.4066C415.992 20.0773 400.635 23.607 386.071 23.6162C384.941 23.6162 384.015 22.7095 383.992 21.5715C383.969 20.4382 384.854 19.4898 385.988 19.4436C390.105 19.2724 393.881 17.1213 395.172 14.2069C396.038 12.2501 395.651 10.1916 394.047 8.25327C389.211 2.40138 379.686 4.48308 371.936 6.95336C366.33 8.739 360.751 10.9271 355.362 13.0458C342.158 18.2316 328.502 23.5931 313.039 23.6116H313.043Z" fill="#0079FD"/>
</svg>
