<svg width="1440" height="513" viewBox="0 0 1440 513" fill="none" xmlns="http://www.w3.org/2000/svg">
<path d="M444.407 443.502C442.34 443.502 440.658 441.831 440.633 439.757C440.607 437.675 442.256 435.971 444.323 435.929C452.147 435.761 459.377 431.856 461.887 426.432C463.511 422.939 462.883 419.354 460.021 415.794C451.419 405.071 433.93 408.808 419.654 413.266C409.152 416.541 398.734 420.63 388.65 424.585C364.985 433.871 340.5 443.469 312.819 443.511C310.769 443.511 309.087 441.865 309.045 439.799C309.003 437.734 310.618 436.013 312.668 435.937C320.116 435.643 326.961 431.739 329.312 426.457C330.894 422.897 330.199 419.144 327.287 415.626C318.517 405.004 301.229 408.791 287.145 413.275C276.962 416.516 266.845 420.487 257.054 424.325C233.079 433.737 208.285 443.46 180.21 443.502C178.143 443.502 176.461 441.831 176.436 439.757C176.411 437.684 178.059 435.971 180.126 435.929C187.967 435.761 195.205 431.848 197.724 426.415C199.348 422.922 198.72 419.354 195.867 415.785C187.273 405.063 169.783 408.8 155.491 413.258C144.997 416.533 134.57 420.622 124.495 424.568C100.814 433.855 76.3204 443.46 48.6137 443.494C46.5635 443.494 44.8815 441.848 44.8397 439.783C44.7979 437.717 46.4129 435.996 48.4631 435.92C55.9274 435.618 62.7808 431.722 65.1323 426.432C66.7138 422.872 66.0109 419.127 63.1072 415.609C54.3458 404.987 37.049 408.774 22.9656 413.258C12.79 416.499 2.66463 420.471 -7.11764 424.316C-31.0921 433.729 -55.8784 443.452 -83.9449 443.494C-86.0118 443.494 -87.6938 441.831 -87.7189 439.757C-87.744 437.684 -86.1038 435.971 -84.0369 435.92C-74.5475 435.694 -67.8196 430.32 -66.0874 425.131C-64.6899 420.949 -66.3301 416.835 -70.8321 413.25C-82.765 403.736 -103.359 411.142 -116.999 416.037L-118.179 416.466C-120.145 417.154 -122.304 416.146 -123.007 414.173C-123.71 412.2 -122.681 410.034 -120.723 409.328L-119.543 408.909C-104.338 403.443 -81.3508 395.197 -66.1376 407.322C-59.1252 412.914 -56.4976 420.286 -58.9327 427.549C-59.7193 429.892 -60.9829 432.075 -62.6147 434.014C-44.4811 430.857 -27.5274 424.199 -9.86237 417.263C0.0370579 413.376 10.2712 409.362 20.6811 406.045C37.0239 400.831 57.2746 396.675 68.923 410.789C73.6509 416.516 74.7806 423.351 72.0275 429.53C71.2995 431.176 70.3205 432.713 69.1322 434.132C87.224 431.05 104.127 424.425 121.742 417.515C131.943 413.518 142.495 409.379 153.248 406.029C169.817 400.865 190.31 396.759 201.749 411.041C206.419 416.877 207.423 423.468 204.569 429.614C203.85 431.168 202.904 432.629 201.774 433.972C219.824 430.798 236.711 424.165 254.301 417.263C264.2 413.384 274.443 409.362 284.853 406.045C301.195 400.84 321.438 396.675 333.086 410.781C337.814 416.507 338.944 423.342 336.191 429.53C335.463 431.176 334.484 432.713 333.295 434.132C351.387 431.059 368.282 424.425 385.897 417.515C396.098 413.51 406.65 409.379 417.403 406.02C433.963 400.856 454.44 396.75 465.896 411.033C470.574 416.869 471.586 423.468 468.724 429.623C468.005 431.168 467.067 432.629 465.938 433.972C483.988 430.798 500.874 424.165 518.464 417.263C528.363 413.376 538.598 409.362 549.007 406.045C558.597 402.989 584.078 394.87 597.233 410.781C601.96 416.499 603.107 423.325 600.362 429.505C599.534 431.369 598.387 433.099 596.981 434.669C616.144 432.318 635.675 426.701 654.403 418.078C656.311 417.204 658.537 418.044 659.407 419.942C660.278 421.839 659.449 424.09 657.55 424.963C631.257 437.071 603.391 443.477 576.948 443.494C574.898 443.494 573.216 441.848 573.174 439.783C573.133 437.725 574.739 436.004 576.798 435.92C584.27 435.61 591.124 431.705 593.467 426.415C595.04 422.864 594.337 419.127 591.425 415.609C582.647 404.987 565.359 408.774 551.292 413.25C541.116 416.491 530.991 420.462 521.209 424.308C497.243 433.72 472.456 443.443 444.39 443.485L444.407 443.502Z" fill="#DCEFF3"/>
<path d="M444.407 504.058C442.34 504.058 440.658 502.387 440.633 500.313C440.607 498.231 442.256 496.526 444.323 496.484C452.147 496.316 459.377 492.412 461.887 486.988C463.511 483.495 462.883 479.91 460.021 476.349C451.419 465.627 433.93 469.364 419.654 473.822C409.152 477.097 398.734 481.186 388.65 485.141C364.985 494.427 340.5 504.024 312.819 504.066C310.769 504.066 309.087 502.421 309.045 500.355C309.003 498.289 310.618 496.568 312.668 496.493C320.116 496.199 326.961 492.303 329.312 487.013C330.894 483.453 330.199 479.708 327.287 476.181C318.526 465.56 301.237 469.355 287.145 473.83C276.962 477.071 266.845 481.043 257.054 484.889C233.079 494.301 208.285 504.024 180.21 504.066C178.143 504.066 176.461 502.395 176.436 500.321C176.411 498.248 178.059 496.535 180.126 496.493C187.967 496.325 195.206 492.412 197.724 486.979C199.348 483.486 198.72 479.918 195.867 476.349C187.273 465.627 169.783 469.372 155.491 473.822C144.997 477.097 134.571 481.186 124.495 485.132C100.814 494.419 76.3204 504.024 48.6137 504.058C46.5636 504.058 44.8816 502.412 44.8398 500.347C44.7979 498.281 46.4129 496.56 48.4631 496.484C55.9274 496.182 62.7809 492.286 65.1323 486.996C66.7139 483.436 66.0109 479.691 63.1072 476.173C54.3375 465.551 37.0491 469.33 22.9656 473.822C12.7901 477.063 2.67306 481.035 -7.10921 484.872C-31.0837 494.284 -55.8783 504.016 -83.9448 504.058C-86.0117 504.058 -87.6937 502.395 -87.7188 500.321C-87.7439 498.248 -86.1038 496.535 -84.0369 496.484C-74.5475 496.258 -67.8195 490.892 -66.0874 485.703C-64.6899 481.513 -66.33 477.407 -70.8321 473.814C-82.7565 464.3 -103.375 471.706 -117.015 476.61L-118.187 477.03C-120.153 477.726 -122.312 476.71 -123.007 474.737C-123.71 472.764 -122.689 470.598 -120.722 469.901L-119.559 469.481C-104.346 464.015 -81.3507 455.761 -66.1376 467.886C-59.1251 473.478 -56.4976 480.85 -58.9327 488.113C-59.7193 490.456 -60.9828 492.63 -62.6146 494.578C-44.481 491.421 -27.5273 484.763 -9.85394 477.827C0.0454807 473.94 10.2713 469.926 20.6895 466.609C37.0323 461.412 57.2831 457.239 68.9314 471.353C73.6594 477.08 74.7891 483.915 72.036 490.094C71.3079 491.74 70.3289 493.277 69.1406 494.696C87.2324 491.614 104.136 484.989 121.751 478.079C131.951 474.082 142.503 469.943 153.256 466.593C169.834 461.429 190.319 457.323 201.758 471.605C206.427 477.441 207.431 484.032 204.578 490.178C203.858 491.732 202.913 493.193 201.783 494.536C219.833 491.362 236.72 484.729 254.309 477.827C264.209 473.94 274.451 469.926 284.861 466.609C301.204 461.404 321.446 457.239 333.095 471.345C337.822 477.071 338.952 483.906 336.199 490.103C335.471 491.749 334.492 493.285 333.304 494.704C351.387 491.631 368.291 484.998 385.905 478.087C396.106 474.082 406.658 469.951 417.411 466.593C433.972 461.429 454.448 457.323 465.904 471.605C470.582 477.441 471.594 484.041 468.733 490.195C468.013 491.74 467.076 493.201 465.946 494.545C483.996 491.371 500.883 484.738 518.472 477.836C528.372 473.948 538.606 469.934 549.016 466.609C558.606 463.553 584.086 455.434 597.241 471.345C601.969 477.063 603.115 483.889 600.371 490.069C599.542 491.933 598.396 493.663 596.99 495.242C616.153 492.891 635.684 487.273 654.412 478.65C656.319 477.785 658.545 478.616 659.416 480.514C660.286 482.412 659.458 484.662 657.558 485.535C631.266 497.643 603.391 504.049 576.957 504.066C574.907 504.066 573.225 502.421 573.183 500.355C573.141 498.298 574.748 496.577 576.806 496.493C584.279 496.182 591.132 492.278 593.475 486.988C595.049 483.436 594.346 479.7 591.434 476.181C582.655 465.56 565.367 469.338 551.3 473.822C541.125 477.063 530.999 481.035 521.217 484.88C497.251 494.293 472.465 504.024 444.398 504.058H444.407Z" fill="#DCEFF3"/>
<path d="M1221.41 451.565C1219.34 451.565 1217.66 449.894 1217.63 447.82C1217.61 445.738 1219.26 444.033 1221.32 443.991C1229.15 443.823 1236.38 439.919 1238.89 434.495C1240.51 431.002 1239.88 427.416 1237.02 423.856C1228.42 413.134 1210.93 416.87 1196.65 421.329C1186.15 424.604 1175.73 428.693 1165.65 432.647C1141.99 441.934 1117.5 451.531 1089.82 451.573C1087.77 451.573 1086.09 449.927 1086.04 447.862C1086 445.796 1087.62 444.075 1089.67 444C1097.12 443.706 1103.96 439.801 1106.31 434.52C1107.89 430.96 1107.2 427.206 1104.29 423.688C1095.52 413.067 1078.23 416.854 1064.15 421.337C1053.96 424.578 1043.84 428.55 1034.05 432.387C1010.08 441.8 985.285 451.523 957.21 451.565C955.143 451.565 953.461 449.894 953.436 447.82C953.411 445.746 955.059 444.033 957.126 443.991C964.967 443.823 972.205 439.91 974.724 434.478C976.348 430.985 975.72 427.416 972.867 423.848C964.273 413.126 946.783 416.862 932.491 421.321C921.997 424.595 911.57 428.684 901.495 432.631C877.814 441.917 853.32 451.523 825.614 451.556C823.564 451.556 821.882 449.911 821.84 447.845C821.798 445.78 823.413 444.058 825.463 443.983C832.927 443.68 839.781 439.784 842.132 434.495C843.714 430.935 843.011 427.19 840.107 423.672C831.346 413.05 814.049 416.837 799.966 421.321C789.79 424.562 779.665 428.533 769.882 432.379C745.908 441.791 721.122 451.514 693.055 451.556C690.988 451.556 689.306 449.894 689.281 447.82C689.256 445.746 690.896 444.033 692.963 443.983C702.453 443.756 709.18 438.382 710.913 433.193C712.31 429.012 710.67 424.897 706.168 421.312C694.235 411.799 673.641 419.205 660.001 424.1L658.821 424.528C656.855 425.217 654.696 424.209 653.993 422.236C653.29 420.263 654.319 418.096 656.278 417.391L657.457 416.971C672.662 411.505 695.649 403.26 710.862 415.384C717.875 420.976 720.502 428.348 718.067 435.611C717.281 437.954 716.017 440.137 714.385 442.077C732.519 438.92 749.473 432.261 767.138 425.326C777.037 421.438 787.271 417.425 797.681 414.108C814.024 408.894 834.275 404.737 845.923 418.852C850.651 424.578 851.781 431.413 849.028 437.593C848.299 439.239 847.32 440.775 846.132 442.194C864.224 439.113 881.127 432.488 898.742 425.578C908.943 421.581 919.495 417.441 930.248 414.091C946.817 408.927 967.31 404.821 978.749 419.104C983.419 424.939 984.423 431.531 981.569 437.677C980.85 439.23 979.904 440.691 978.774 442.035C996.824 438.861 1013.71 432.228 1031.3 425.326C1041.2 421.446 1051.44 417.425 1061.85 414.108C1078.2 408.902 1098.44 404.737 1110.09 418.844C1114.81 424.57 1115.94 431.405 1113.19 437.593C1112.46 439.239 1111.48 440.775 1110.3 442.194C1128.39 439.121 1145.28 432.488 1162.9 425.578C1173.1 421.572 1183.65 417.441 1194.4 414.083C1210.96 408.919 1231.44 404.813 1242.9 419.095C1247.57 424.931 1248.59 431.531 1245.72 437.685C1245 439.23 1244.07 440.691 1242.94 442.035C1260.99 438.861 1277.87 432.228 1295.46 425.326C1305.36 421.438 1315.6 417.425 1326.01 414.108C1335.6 411.052 1361.08 402.932 1374.23 418.844C1378.96 424.562 1380.11 431.388 1377.36 437.568C1376.53 439.432 1375.39 441.162 1373.98 442.732C1393.14 440.381 1412.68 434.763 1431.4 426.14C1433.31 425.267 1435.54 426.107 1436.41 428.004C1437.28 429.902 1436.45 432.152 1434.55 433.025C1408.26 445.133 1380.39 451.54 1353.95 451.556C1351.9 451.556 1350.22 449.911 1350.17 447.845C1350.13 445.788 1351.74 444.067 1353.8 443.983C1361.27 443.672 1368.12 439.768 1370.47 434.478C1372.04 430.926 1371.34 427.19 1368.43 423.672C1359.65 413.05 1342.36 416.837 1328.29 421.312C1318.12 424.553 1307.99 428.525 1298.21 432.37C1274.24 441.783 1249.46 451.506 1221.39 451.548L1221.41 451.565Z" fill="#0079FD" fill-opacity="0.1"/>
<path d="M1221.41 512.12C1219.34 512.12 1217.66 510.449 1217.63 508.376C1217.61 506.293 1219.26 504.589 1221.32 504.547C1229.15 504.379 1236.38 500.474 1238.89 495.05C1240.51 491.557 1239.88 487.972 1237.02 484.412C1228.42 473.69 1210.93 477.426 1196.65 481.885C1186.15 485.159 1175.73 489.248 1165.65 493.203C1141.99 502.49 1117.5 512.087 1089.82 512.129C1087.77 512.129 1086.09 510.483 1086.04 508.418C1086 506.352 1087.62 504.631 1089.67 504.555C1097.12 504.261 1103.96 500.365 1106.31 495.075C1107.89 491.515 1107.2 487.77 1104.29 484.244C1095.53 473.622 1078.24 477.418 1064.15 481.893C1053.96 485.134 1043.84 489.106 1034.05 492.951C1010.08 502.364 985.285 512.087 957.21 512.129C955.143 512.129 953.461 510.458 953.436 508.384C953.411 506.31 955.059 504.597 957.126 504.555C964.967 504.387 972.206 500.474 974.724 495.042C976.348 491.549 975.72 487.98 972.867 484.412C964.273 473.69 946.783 477.434 932.491 481.885C921.997 485.159 911.57 489.248 901.495 493.195C877.814 502.481 853.32 512.087 825.614 512.12C823.564 512.12 821.882 510.475 821.84 508.409C821.798 506.344 823.413 504.622 825.463 504.547C832.927 504.244 839.781 500.348 842.132 495.059C843.714 491.499 843.011 487.754 840.107 484.236C831.337 473.614 814.049 477.392 799.966 481.885C789.79 485.126 779.673 489.097 769.891 492.934C745.916 502.347 721.122 512.078 693.055 512.12C690.988 512.12 689.306 510.458 689.281 508.384C689.256 506.31 690.896 504.597 692.963 504.547C702.453 504.32 709.18 498.955 710.913 493.766C712.31 489.576 710.67 485.47 706.168 481.876C694.243 472.363 673.625 479.769 659.985 484.672L658.813 485.092C656.847 485.789 654.688 484.773 653.993 482.8C653.29 480.827 654.311 478.66 656.278 477.963L657.441 477.544C672.654 472.077 695.649 463.824 710.862 475.948C717.875 481.54 720.502 488.912 718.067 496.175C717.281 498.518 716.017 500.693 714.385 502.641C732.519 499.484 749.473 492.825 767.146 485.89C777.045 482.002 787.271 477.989 797.689 474.672C814.032 469.474 834.283 465.301 845.931 479.416C850.659 485.142 851.789 491.977 849.036 498.157C848.308 499.803 847.329 501.339 846.141 502.758C864.232 499.677 881.136 493.052 898.751 486.142C908.951 482.145 919.503 478.005 930.256 474.655C946.834 469.491 967.319 465.385 978.758 479.668C983.427 485.503 984.431 492.095 981.578 498.241C980.858 499.794 979.913 501.255 978.783 502.599C996.833 499.425 1013.72 492.792 1031.31 485.89C1041.21 482.002 1051.45 477.989 1061.86 474.672C1078.2 469.466 1098.45 465.301 1110.09 479.408C1114.82 485.134 1115.95 491.969 1113.2 498.165C1112.47 499.811 1111.49 501.348 1110.3 502.767C1128.39 499.694 1145.29 493.06 1162.91 486.15C1173.11 482.145 1183.66 478.014 1194.41 474.655C1210.97 469.491 1231.45 465.385 1242.9 479.668C1247.58 485.503 1248.59 492.103 1245.73 498.258C1245.01 499.803 1244.08 501.264 1242.95 502.607C1261 499.433 1277.88 492.8 1295.47 485.898C1305.37 482.01 1315.61 477.997 1326.02 474.672C1335.61 471.616 1361.09 463.496 1374.24 479.408C1378.97 485.126 1380.12 491.952 1377.37 498.132C1376.54 499.996 1375.4 501.726 1373.99 503.304C1393.15 500.953 1412.68 495.336 1431.41 486.713C1433.32 485.848 1435.55 486.679 1436.42 488.577C1437.29 490.474 1436.46 492.724 1434.56 493.598C1408.27 505.705 1380.39 512.112 1353.96 512.129C1351.91 512.129 1350.22 510.483 1350.18 508.418C1350.14 506.36 1351.75 504.639 1353.81 504.555C1361.28 504.244 1368.13 500.34 1370.48 495.05C1372.05 491.499 1371.35 487.762 1368.43 484.244C1359.66 473.622 1342.37 477.401 1328.3 481.885C1318.12 485.126 1308 489.097 1298.22 492.943C1274.25 502.355 1249.46 512.087 1221.4 512.12H1221.41Z" fill="#0079FD" fill-opacity="0.1"/>
<path d="M444.407 313.44C442.34 313.44 440.658 311.769 440.633 309.695C440.607 307.613 442.256 305.908 444.323 305.866C452.147 305.698 459.377 301.794 461.887 296.37C463.511 292.877 462.883 289.291 460.021 285.731C451.419 275.009 433.93 278.745 419.654 283.204C409.152 286.479 398.734 290.568 388.65 294.522C364.985 303.809 340.5 313.406 312.819 313.448C310.769 313.448 309.087 311.802 309.045 309.737C309.003 307.671 310.618 305.95 312.668 305.875C320.116 305.581 326.961 301.676 329.312 296.395C330.894 292.835 330.199 289.081 327.287 285.563C318.517 274.942 301.229 278.729 287.145 283.212C276.962 286.453 266.845 290.425 257.054 294.262C233.079 303.675 208.285 313.398 180.21 313.44C178.143 313.44 176.461 311.769 176.436 309.695C176.411 307.621 178.059 305.908 180.126 305.866C187.967 305.698 195.205 301.785 197.724 296.353C199.348 292.86 198.72 289.291 195.867 285.723C187.273 275.001 169.783 278.737 155.491 283.196C144.997 286.47 134.57 290.559 124.495 294.506C100.814 303.792 76.3204 313.398 48.6137 313.431C46.5635 313.431 44.8815 311.786 44.8397 309.72C44.7979 307.655 46.4129 305.933 48.4631 305.858C55.9274 305.555 62.7808 301.659 65.1323 296.37C66.7138 292.81 66.0109 289.065 63.1072 285.547C54.3458 274.925 37.049 278.712 22.9656 283.196C12.79 286.437 2.66463 290.408 -7.11764 294.254C-31.0921 303.666 -55.8784 313.389 -83.9449 313.431C-86.0118 313.431 -87.6938 311.769 -87.7189 309.695C-87.744 307.621 -86.1038 305.908 -84.0369 305.858C-74.5475 305.631 -67.8196 300.257 -66.0874 295.068C-64.6899 290.887 -66.3301 286.772 -70.8321 283.187C-82.765 273.674 -103.359 281.08 -116.999 285.975L-118.179 286.403C-120.145 287.092 -122.304 286.084 -123.007 284.111C-123.71 282.138 -122.681 279.971 -120.723 279.266L-119.543 278.846C-104.338 273.38 -81.3508 265.135 -66.1376 277.259C-59.1252 282.851 -56.4976 290.223 -58.9327 297.486C-59.7193 299.829 -60.9829 302.012 -62.6147 303.952C-44.4811 300.795 -27.5274 294.136 -9.86237 287.201C0.0370579 283.313 10.2712 279.3 20.6811 275.983C37.0239 270.769 57.2746 266.612 68.923 280.727C73.6509 286.453 74.7806 293.288 72.0275 299.468C71.2995 301.114 70.3205 302.65 69.1322 304.069C87.224 300.988 104.127 294.363 121.742 287.453C131.943 283.456 142.495 279.316 153.248 275.966C169.817 270.802 190.31 266.696 201.749 280.979C206.419 286.814 207.423 293.406 204.569 299.552C203.85 301.105 202.904 302.566 201.774 303.91C219.824 300.736 236.711 294.103 254.301 287.201C264.2 283.321 274.443 279.3 284.853 275.983C301.195 270.777 321.438 266.612 333.086 280.719C337.814 286.445 338.944 293.28 336.191 299.468C335.463 301.114 334.484 302.65 333.295 304.069C351.387 300.996 368.282 294.363 385.897 287.453C396.098 283.447 406.65 279.316 417.403 275.958C433.963 270.794 454.44 266.688 465.896 280.97C470.574 286.806 471.586 293.406 468.724 299.56C468.005 301.105 467.067 302.566 465.938 303.91C483.988 300.736 500.874 294.103 518.464 287.201C528.363 283.313 538.598 279.3 549.007 275.983C558.597 272.927 584.078 264.807 597.233 280.719C601.96 286.437 603.107 293.263 600.362 299.443C599.534 301.307 598.387 303.037 596.981 304.607C616.144 302.256 635.675 296.638 654.403 288.015C656.311 287.142 658.537 287.982 659.407 289.879C660.278 291.777 659.449 294.027 657.55 294.9C631.257 307.008 603.391 313.415 576.948 313.431C574.898 313.431 573.216 311.786 573.174 309.72C573.133 307.663 574.739 305.942 576.798 305.858C584.27 305.547 591.124 301.643 593.467 296.353C595.04 292.801 594.337 289.065 591.425 285.547C582.647 274.925 565.359 278.712 551.292 283.187C541.116 286.428 530.991 290.4 521.209 294.245C497.243 303.658 472.456 313.381 444.39 313.423L444.407 313.44Z" fill="#0079FD" fill-opacity="0.1"/>
<path d="M444.407 373.995C442.34 373.995 440.658 372.324 440.633 370.251C440.607 368.168 442.256 366.464 444.323 366.422C452.147 366.254 459.377 362.349 461.887 356.925C463.511 353.432 462.883 349.847 460.021 346.287C451.419 335.565 433.93 339.301 419.654 343.76C409.152 347.034 398.734 351.123 388.65 355.078C364.985 364.365 340.5 373.962 312.819 374.004C310.769 374.004 309.087 372.358 309.045 370.293C309.003 368.227 310.618 366.506 312.668 366.43C320.116 366.136 326.961 362.24 329.312 356.95C330.894 353.39 330.199 349.645 327.287 346.119C318.526 335.497 301.237 339.293 287.145 343.768C276.962 347.009 266.845 350.981 257.054 354.826C233.079 364.239 208.285 373.962 180.21 374.004C178.143 374.004 176.461 372.333 176.436 370.259C176.411 368.185 178.059 366.472 180.126 366.43C187.967 366.262 195.206 362.349 197.724 356.917C199.348 353.424 198.72 349.855 195.867 346.287C187.273 335.565 169.783 339.309 155.491 343.76C144.997 347.034 134.571 351.123 124.495 355.07C100.814 364.356 76.3204 373.962 48.6137 373.995C46.5636 373.995 44.8816 372.35 44.8398 370.284C44.7979 368.219 46.4129 366.497 48.4631 366.422C55.9274 366.119 62.7809 362.223 65.1323 356.934C66.7139 353.374 66.0109 349.629 63.1072 346.111C54.3375 335.489 37.0491 339.267 22.9656 343.76C12.7901 347.001 2.67306 350.972 -7.10921 354.809C-31.0837 364.222 -55.8783 373.953 -83.9448 373.995C-86.0117 373.995 -87.6937 372.333 -87.7188 370.259C-87.7439 368.185 -86.1038 366.472 -84.0369 366.422C-74.5475 366.195 -67.8195 360.83 -66.0874 355.641C-64.6899 351.451 -66.33 347.345 -70.8321 343.751C-82.7565 334.238 -103.375 341.644 -117.015 346.547L-118.187 346.967C-120.153 347.664 -122.312 346.648 -123.007 344.675C-123.71 342.702 -122.689 340.535 -120.722 339.838L-119.559 339.419C-104.346 333.952 -81.3507 325.699 -66.1376 337.823C-59.1251 343.415 -56.4976 350.787 -58.9327 358.05C-59.7193 360.393 -60.9828 362.568 -62.6146 364.516C-44.481 361.359 -27.5273 354.7 -9.85394 347.765C0.0454807 343.877 10.2713 339.864 20.6895 336.547C37.0323 331.349 57.2831 327.176 68.9314 341.291C73.6594 347.017 74.7891 353.852 72.036 360.032C71.3079 361.678 70.3289 363.214 69.1406 364.633C87.2324 361.552 104.136 354.927 121.751 348.017C131.951 344.02 142.503 339.88 153.256 336.53C169.834 331.366 190.319 327.26 201.758 341.543C206.427 347.378 207.431 353.97 204.578 360.116C203.858 361.669 202.913 363.13 201.783 364.474C219.833 361.3 236.72 354.667 254.309 347.765C264.209 343.877 274.451 339.864 284.861 336.547C301.204 331.341 321.446 327.176 333.095 341.283C337.822 347.009 338.952 353.844 336.199 360.04C335.471 361.686 334.492 363.223 333.304 364.642C351.387 361.569 368.291 354.935 385.905 348.025C396.106 344.02 406.658 339.889 417.411 336.53C433.972 331.366 454.448 327.26 465.904 341.543C470.582 347.378 471.594 353.978 468.733 360.133C468.013 361.678 467.076 363.139 465.946 364.482C483.996 361.308 500.883 354.675 518.472 347.773C528.372 343.885 538.606 339.872 549.016 336.547C558.606 333.491 584.086 325.371 597.241 341.283C601.969 347.001 603.115 353.827 600.371 360.007C599.542 361.871 598.396 363.601 596.99 365.179C616.153 362.828 635.684 357.211 654.412 348.588C656.319 347.723 658.545 348.554 659.416 350.452C660.286 352.349 659.458 354.599 657.558 355.473C631.266 367.58 603.391 373.987 576.957 374.004C574.907 374.004 573.225 372.358 573.183 370.293C573.141 368.235 574.748 366.514 576.806 366.43C584.279 366.119 591.132 362.215 593.475 356.925C595.049 353.374 594.346 349.637 591.434 346.119C582.655 335.497 565.367 339.276 551.3 343.76C541.125 347.001 530.999 350.972 521.217 354.818C497.251 364.23 472.465 373.962 444.398 373.995H444.407Z" fill="#0079FD" fill-opacity="0.1"/>
<path d="M1221.41 321.502C1219.34 321.502 1217.66 319.831 1217.63 317.757C1217.61 315.675 1219.26 313.971 1221.32 313.929C1229.15 313.761 1236.38 309.856 1238.89 304.432C1240.51 300.939 1239.88 297.354 1237.02 293.794C1228.42 283.071 1210.93 286.808 1196.65 291.266C1186.15 294.541 1175.73 298.63 1165.65 302.585C1141.99 311.871 1117.5 321.469 1089.82 321.511C1087.77 321.511 1086.09 319.865 1086.04 317.799C1086 315.734 1087.62 314.013 1089.67 313.937C1097.12 313.643 1103.96 309.739 1106.31 304.457C1107.89 300.897 1107.2 297.144 1104.29 293.626C1095.52 283.004 1078.23 286.791 1064.15 291.275C1053.96 294.516 1043.84 298.487 1034.05 302.325C1010.08 311.737 985.285 321.46 957.21 321.502C955.143 321.502 953.461 319.831 953.436 317.757C953.411 315.684 955.059 313.971 957.126 313.929C964.967 313.761 972.205 309.848 974.724 304.415C976.348 300.922 975.72 297.354 972.867 293.785C964.273 283.063 946.783 286.8 932.491 291.258C921.997 294.533 911.57 298.622 901.495 302.568C877.814 311.855 853.32 321.46 825.614 321.494C823.564 321.494 821.882 319.848 821.84 317.783C821.798 315.717 823.413 313.996 825.463 313.92C832.927 313.618 839.781 309.722 842.132 304.432C843.714 300.872 843.011 297.127 840.107 293.609C831.346 282.987 814.049 286.774 799.966 291.258C789.79 294.499 779.665 298.471 769.882 302.316C745.908 311.729 721.122 321.452 693.055 321.494C690.988 321.494 689.306 319.831 689.281 317.757C689.256 315.684 690.896 313.971 692.963 313.92C702.453 313.694 709.18 308.32 710.913 303.131C712.31 298.949 710.67 294.835 706.168 291.25C694.235 281.736 673.641 289.142 660.001 294.037L658.821 294.466C656.855 295.154 654.696 294.146 653.993 292.173C653.29 290.2 654.319 288.034 656.278 287.328L657.457 286.909C672.662 281.443 695.649 273.197 710.862 285.322C717.875 290.914 720.502 298.286 718.067 305.549C717.281 307.892 716.017 310.075 714.385 312.014C732.519 308.857 749.473 302.199 767.138 295.263C777.037 291.376 787.271 287.362 797.681 284.045C814.024 278.831 834.275 274.675 845.923 288.789C850.651 294.516 851.781 301.351 849.028 307.53C848.299 309.176 847.32 310.713 846.132 312.132C864.224 309.05 881.127 302.425 898.742 295.515C908.943 291.518 919.495 287.379 930.248 284.029C946.817 278.865 967.31 274.759 978.749 289.041C983.419 294.877 984.423 301.468 981.569 307.614C980.85 309.168 979.904 310.629 978.774 311.972C996.824 308.798 1013.71 302.165 1031.3 295.263C1041.2 291.384 1051.44 287.362 1061.85 284.045C1078.2 278.84 1098.44 274.675 1110.09 288.781C1114.81 294.507 1115.94 301.342 1113.19 307.53C1112.46 309.176 1111.48 310.713 1110.3 312.132C1128.39 309.059 1145.28 302.425 1162.9 295.515C1173.1 291.51 1183.65 287.379 1194.4 284.02C1210.96 278.856 1231.44 274.75 1242.9 289.033C1247.57 294.869 1248.59 301.468 1245.72 307.623C1245 309.168 1244.07 310.629 1242.94 311.972C1260.99 308.798 1277.87 302.165 1295.46 295.263C1305.36 291.376 1315.6 287.362 1326.01 284.045C1335.6 280.989 1361.08 272.87 1374.23 288.781C1378.96 294.499 1380.11 301.325 1377.36 307.505C1376.53 309.369 1375.39 311.099 1373.98 312.669C1393.14 310.318 1412.68 304.701 1431.4 296.078C1433.31 295.204 1435.54 296.044 1436.41 297.942C1437.28 299.839 1436.45 302.09 1434.55 302.963C1408.26 315.071 1380.39 321.477 1353.95 321.494C1351.9 321.494 1350.22 319.848 1350.17 317.783C1350.13 315.725 1351.74 314.004 1353.8 313.92C1361.27 313.61 1368.12 309.705 1370.47 304.415C1372.04 300.864 1371.34 297.127 1368.43 293.609C1359.65 282.987 1342.36 286.774 1328.29 291.25C1318.12 294.491 1307.99 298.462 1298.21 302.308C1274.24 311.72 1249.46 321.443 1221.39 321.485L1221.41 321.502Z" fill="#0079FD" fill-opacity="0.1"/>
<path d="M1221.41 382.058C1219.34 382.058 1217.66 380.387 1217.63 378.313C1217.61 376.231 1219.26 374.526 1221.32 374.484C1229.15 374.316 1236.38 370.412 1238.89 364.988C1240.51 361.495 1239.88 357.91 1237.02 354.349C1228.42 343.627 1210.93 347.364 1196.65 351.822C1186.15 355.097 1175.73 359.186 1165.65 363.141C1141.99 372.427 1117.5 382.024 1089.82 382.066C1087.77 382.066 1086.09 380.421 1086.04 378.355C1086 376.289 1087.62 374.568 1089.67 374.493C1097.12 374.199 1103.96 370.303 1106.31 365.013C1107.89 361.453 1107.2 357.708 1104.29 354.181C1095.53 343.56 1078.24 347.355 1064.15 351.83C1053.96 355.071 1043.84 359.043 1034.05 362.889C1010.08 372.301 985.285 382.024 957.21 382.066C955.143 382.066 953.461 380.395 953.436 378.321C953.411 376.248 955.059 374.535 957.126 374.493C964.967 374.325 972.206 370.412 974.724 364.979C976.348 361.486 975.72 357.918 972.867 354.349C964.273 343.627 946.783 347.372 932.491 351.822C921.997 355.097 911.57 359.186 901.495 363.132C877.814 372.419 853.32 382.024 825.614 382.058C823.564 382.058 821.882 380.412 821.84 378.347C821.798 376.281 823.413 374.56 825.463 374.484C832.927 374.182 839.781 370.286 842.132 364.996C843.714 361.436 843.011 357.691 840.107 354.173C831.337 343.551 814.049 347.33 799.966 351.822C789.79 355.063 779.673 359.035 769.891 362.872C745.916 372.284 721.122 382.016 693.055 382.058C690.988 382.058 689.306 380.395 689.281 378.321C689.256 376.248 690.896 374.535 692.963 374.484C702.453 374.258 709.18 368.892 710.913 363.703C712.31 359.513 710.67 355.407 706.168 351.814C694.243 342.3 673.625 349.706 659.985 354.61L658.813 355.03C656.847 355.726 654.688 354.71 653.993 352.737C653.29 350.764 654.311 348.598 656.278 347.901L657.441 347.481C672.654 342.015 695.649 333.761 710.862 345.886C717.875 351.478 720.502 358.85 718.067 366.113C717.281 368.456 716.017 370.63 714.385 372.578C732.519 369.421 749.473 362.763 767.146 355.827C777.045 351.94 787.271 347.926 797.689 344.609C814.032 339.412 834.283 335.239 845.931 349.353C850.659 355.08 851.789 361.915 849.036 368.094C848.308 369.74 847.329 371.277 846.141 372.696C864.232 369.614 881.136 362.989 898.751 356.079C908.951 352.082 919.503 347.943 930.256 344.593C946.834 339.429 967.319 335.323 978.758 349.605C983.427 355.441 984.431 362.032 981.578 368.178C980.858 369.732 979.913 371.193 978.783 372.536C996.833 369.362 1013.72 362.729 1031.31 355.827C1041.21 351.94 1051.45 347.926 1061.86 344.609C1078.2 339.404 1098.45 335.239 1110.09 349.345C1114.82 355.071 1115.95 361.906 1113.2 368.103C1112.47 369.749 1111.49 371.285 1110.3 372.704C1128.39 369.631 1145.29 362.998 1162.91 356.087C1173.11 352.082 1183.66 347.951 1194.41 344.593C1210.97 339.429 1231.45 335.323 1242.9 349.605C1247.58 355.441 1248.59 362.041 1245.73 368.195C1245.01 369.74 1244.08 371.201 1242.95 372.545C1261 369.371 1277.88 362.738 1295.47 355.836C1305.37 351.948 1315.61 347.934 1326.02 344.609C1335.61 341.553 1361.09 333.434 1374.24 349.345C1378.97 355.063 1380.12 361.889 1377.37 368.069C1376.54 369.933 1375.4 371.663 1373.99 373.242C1393.15 370.891 1412.68 365.273 1431.41 356.65C1433.32 355.785 1435.55 356.616 1436.42 358.514C1437.29 360.412 1436.46 362.662 1434.56 363.535C1408.27 375.643 1380.39 382.049 1353.96 382.066C1351.91 382.066 1350.22 380.421 1350.18 378.355C1350.14 376.298 1351.75 374.577 1353.81 374.493C1361.28 374.182 1368.13 370.278 1370.48 364.988C1372.05 361.436 1371.35 357.7 1368.43 354.181C1359.66 343.56 1342.37 347.338 1328.3 351.822C1318.12 355.063 1308 359.035 1298.22 362.88C1274.25 372.293 1249.46 382.024 1221.4 382.058H1221.41Z" fill="#0079FD" fill-opacity="0.1"/>
<path d="M444.407 178.048C442.34 178.048 440.658 176.377 440.633 174.303C440.607 172.221 442.256 170.517 444.323 170.475C452.147 170.307 459.377 166.402 461.887 160.978C463.511 157.485 462.883 153.9 460.021 150.34C451.419 139.617 433.93 143.354 419.654 147.812C409.152 151.087 398.734 155.176 388.65 159.131C364.985 168.417 340.5 178.015 312.819 178.057C310.769 178.057 309.087 176.411 309.045 174.345C309.003 172.28 310.618 170.558 312.668 170.483C320.116 170.189 326.961 166.285 329.312 161.003C330.894 157.443 330.199 153.69 327.287 150.172C318.517 139.55 301.229 143.337 287.145 147.821C276.962 151.062 266.845 155.033 257.054 158.871C233.079 168.283 208.285 178.006 180.21 178.048C178.143 178.048 176.461 176.377 176.436 174.303C176.411 172.229 178.059 170.517 180.126 170.475C187.967 170.307 195.205 166.394 197.724 160.961C199.348 157.468 198.72 153.9 195.867 150.331C187.273 139.609 169.783 143.345 155.491 147.804C144.997 151.079 134.57 155.168 124.495 159.114C100.814 168.401 76.3204 178.006 48.6137 178.04C46.5635 178.04 44.8815 176.394 44.8397 174.329C44.7979 172.263 46.4129 170.542 48.4631 170.466C55.9274 170.164 62.7808 166.268 65.1323 160.978C66.7138 157.418 66.0109 153.673 63.1072 150.155C54.3458 139.533 37.049 143.32 22.9656 147.804C12.79 151.045 2.66463 155.017 -7.11764 158.862C-31.0921 168.275 -55.8784 177.998 -83.9449 178.04C-86.0118 178.04 -87.6938 176.377 -87.7189 174.303C-87.744 172.229 -86.1038 170.517 -84.0369 170.466C-74.5475 170.239 -67.8196 164.866 -66.0874 159.677C-64.6899 155.495 -66.3301 151.381 -70.8321 147.796C-82.765 138.282 -103.359 145.688 -116.999 150.583L-118.179 151.011C-120.145 151.7 -122.304 150.692 -123.007 148.719C-123.71 146.746 -122.681 144.58 -120.723 143.874L-119.543 143.455C-104.338 137.988 -81.3508 129.743 -66.1376 141.868C-59.1252 147.46 -56.4976 154.832 -58.9327 162.095C-59.7193 164.437 -60.9829 166.621 -62.6147 168.56C-44.4811 165.403 -27.5274 158.745 -9.86237 151.809C0.0370579 147.921 10.2712 143.908 20.6811 140.591C37.0239 135.377 57.2746 131.221 68.923 145.335C73.6509 151.062 74.7806 157.897 72.0275 164.076C71.2995 165.722 70.3205 167.259 69.1322 168.678C87.224 165.596 104.127 158.971 121.742 152.061C131.943 148.064 142.495 143.925 153.248 140.575C169.817 135.411 190.31 131.305 201.749 145.587C206.419 151.423 207.423 158.014 204.569 164.16C203.85 165.714 202.904 167.175 201.774 168.518C219.824 165.344 236.711 158.711 254.301 151.809C264.2 147.93 274.443 143.908 284.853 140.591C301.195 135.386 321.438 131.221 333.086 145.327C337.814 151.053 338.944 157.888 336.191 164.076C335.463 165.722 334.484 167.259 333.295 168.678C351.387 165.605 368.282 158.971 385.897 152.061C396.098 148.056 406.65 143.925 417.403 140.566C433.963 135.402 454.44 131.296 465.896 145.579C470.574 151.414 471.586 158.014 468.724 164.169C468.005 165.714 467.067 167.175 465.938 168.518C483.988 165.344 500.874 158.711 518.464 151.809C528.363 147.921 538.598 143.908 549.007 140.591C558.597 137.535 584.078 129.416 597.233 145.327C601.96 151.045 603.107 157.871 600.362 164.051C599.534 165.915 598.387 167.645 596.981 169.215C616.144 166.864 635.675 161.247 654.403 152.624C656.311 151.75 658.537 152.59 659.407 154.488C660.278 156.385 659.449 158.635 657.55 159.509C631.257 171.616 603.391 178.023 576.948 178.04C574.898 178.04 573.216 176.394 573.174 174.329C573.133 172.271 574.739 170.55 576.798 170.466C584.27 170.155 591.124 166.251 593.467 160.961C595.04 157.41 594.337 153.673 591.425 150.155C582.647 139.533 565.359 143.32 551.292 147.796C541.116 151.037 530.991 155.008 521.209 158.854C497.243 168.266 472.456 177.989 444.39 178.031L444.407 178.048Z" fill="#0079FD" fill-opacity="0.1"/>
<path d="M444.407 238.604C442.34 238.604 440.658 236.933 440.633 234.859C440.607 232.777 442.256 231.072 444.323 231.03C452.147 230.862 459.377 226.958 461.887 221.534C463.511 218.041 462.883 214.455 460.021 210.895C451.419 200.173 433.93 203.909 419.654 208.368C409.152 211.643 398.734 215.732 388.65 219.686C364.985 228.973 340.5 238.57 312.819 238.612C310.769 238.612 309.087 236.966 309.045 234.901C309.003 232.835 310.618 231.114 312.668 231.039C320.116 230.745 326.961 226.849 329.312 221.559C330.894 217.999 330.199 214.254 327.287 210.727C318.526 200.106 301.237 203.901 287.145 208.376C276.962 211.617 266.845 215.589 257.054 219.435C233.079 228.847 208.285 238.57 180.21 238.612C178.143 238.612 176.461 236.941 176.436 234.867C176.411 232.793 178.059 231.081 180.126 231.039C187.967 230.871 195.206 226.958 197.724 221.525C199.348 218.032 198.72 214.464 195.867 210.895C187.273 200.173 169.783 203.918 155.491 208.368C144.997 211.643 134.571 215.732 124.495 219.678C100.814 228.965 76.3204 238.57 48.6137 238.604C46.5636 238.604 44.8816 236.958 44.8398 234.893C44.7979 232.827 46.4129 231.106 48.4631 231.03C55.9274 230.728 62.7809 226.832 65.1323 221.542C66.7139 217.982 66.0109 214.237 63.1072 210.719C54.3375 200.097 37.0491 203.876 22.9656 208.368C12.7901 211.609 2.67306 215.581 -7.10921 219.418C-31.0837 228.83 -55.8783 238.562 -83.9448 238.604C-86.0117 238.604 -87.6937 236.941 -87.7188 234.867C-87.7439 232.793 -86.1038 231.08 -84.0369 231.03C-74.5475 230.803 -67.8195 225.438 -66.0874 220.249C-64.6899 216.059 -66.33 211.953 -70.8321 208.36C-82.7565 198.846 -103.375 206.252 -117.015 211.156L-118.187 211.575C-120.153 212.272 -122.312 211.256 -123.007 209.283C-123.71 207.31 -122.689 205.144 -120.722 204.447L-119.559 204.027C-104.346 198.561 -81.3507 190.307 -66.1376 202.432C-59.1251 208.024 -56.4976 215.396 -58.9327 222.659C-59.7193 225.001 -60.9828 227.176 -62.6146 229.124C-44.481 225.967 -27.5273 219.309 -9.85394 212.373C0.0454807 208.485 10.2713 204.472 20.6895 201.155C37.0323 195.958 57.2831 191.785 68.9314 205.899C73.6594 211.626 74.7891 218.461 72.036 224.64C71.3079 226.286 70.3289 227.823 69.1406 229.242C87.2324 226.16 104.136 219.535 121.751 212.625C131.951 208.628 142.503 204.489 153.256 201.139C169.834 195.975 190.319 191.869 201.758 206.151C206.427 211.987 207.431 218.578 204.578 224.724C203.858 226.278 202.913 227.739 201.783 229.082C219.833 225.908 236.72 219.275 254.309 212.373C264.209 208.485 274.451 204.472 284.861 201.155C301.204 195.949 321.446 191.785 333.095 205.891C337.822 211.617 338.952 218.452 336.199 224.649C335.471 226.294 334.492 227.831 333.304 229.25C351.387 226.177 368.291 219.544 385.905 212.633C396.106 208.628 406.658 204.497 417.411 201.139C433.972 195.975 454.448 191.869 465.904 206.151C470.582 211.987 471.594 218.586 468.733 224.741C468.013 226.286 467.076 227.747 465.946 229.091C483.996 225.917 500.883 219.283 518.472 212.381C528.372 208.494 538.606 204.48 549.016 201.155C558.606 198.099 584.086 189.98 597.241 205.891C601.969 211.609 603.115 218.435 600.371 224.615C599.542 226.479 598.396 228.209 596.99 229.787C616.153 227.436 635.684 221.819 654.412 213.196C656.319 212.331 658.545 213.162 659.416 215.06C660.286 216.958 659.458 219.208 657.558 220.081C631.266 232.189 603.391 238.595 576.957 238.612C574.907 238.612 573.225 236.966 573.183 234.901C573.141 232.844 574.748 231.122 576.806 231.039C584.279 230.728 591.132 226.823 593.475 221.534C595.049 217.982 594.346 214.246 591.434 210.727C582.655 200.106 565.367 203.884 551.3 208.368C541.125 211.609 530.999 215.581 521.217 219.426C497.251 228.839 472.465 238.57 444.398 238.604H444.407Z" fill="#0079FD" fill-opacity="0.1"/>
<path d="M1221.41 186.111C1219.34 186.111 1217.66 184.44 1217.63 182.366C1217.61 180.283 1219.26 178.579 1221.32 178.537C1229.15 178.369 1236.38 174.465 1238.89 169.041C1240.51 165.548 1239.88 161.962 1237.02 158.402C1228.42 147.68 1210.93 151.416 1196.65 155.875C1186.15 159.149 1175.73 163.239 1165.65 167.193C1141.99 176.48 1117.5 186.077 1089.82 186.119C1087.77 186.119 1086.09 184.473 1086.04 182.408C1086 180.342 1087.62 178.621 1089.67 178.545C1097.12 178.252 1103.96 174.347 1106.31 169.066C1107.89 165.506 1107.2 161.752 1104.29 158.234C1095.52 147.613 1078.23 151.4 1064.15 155.883C1053.96 159.124 1043.84 163.096 1034.05 166.933C1010.08 176.346 985.285 186.069 957.21 186.111C955.143 186.111 953.461 184.44 953.436 182.366C953.411 180.292 955.059 178.579 957.126 178.537C964.967 178.369 972.205 174.456 974.724 169.024C976.348 165.531 975.72 161.962 972.867 158.394C964.273 147.671 946.783 151.408 932.491 155.866C921.997 159.141 911.57 163.23 901.495 167.177C877.814 176.463 853.32 186.069 825.614 186.102C823.564 186.102 821.882 184.457 821.84 182.391C821.798 180.325 823.413 178.604 825.463 178.529C832.927 178.226 839.781 174.33 842.132 169.041C843.714 165.48 843.011 161.736 840.107 158.217C831.346 147.596 814.049 151.383 799.966 155.866C789.79 159.107 779.665 163.079 769.882 166.925C745.908 176.337 721.122 186.06 693.055 186.102C690.988 186.102 689.306 184.44 689.281 182.366C689.256 180.292 690.896 178.579 692.963 178.529C702.453 178.302 709.18 172.928 710.913 167.739C712.31 163.558 710.67 159.443 706.168 155.858C694.235 146.345 673.641 153.751 660.001 158.646L658.821 159.074C656.855 159.762 654.696 158.755 653.993 156.782C653.29 154.808 654.319 152.642 656.278 151.937L657.457 151.517C672.662 146.051 695.649 137.806 710.862 149.93C717.875 155.522 720.502 162.894 718.067 170.157C717.281 172.5 716.017 174.683 714.385 176.623C732.519 173.466 749.473 166.807 767.138 159.872C777.037 155.984 787.271 151.97 797.681 148.654C814.024 143.44 834.275 139.283 845.923 153.398C850.651 159.124 851.781 165.959 849.028 172.139C848.299 173.785 847.32 175.321 846.132 176.74C864.224 173.659 881.127 167.034 898.742 160.123C908.943 156.127 919.495 151.987 930.248 148.637C946.817 143.473 967.31 139.367 978.749 153.65C983.419 159.485 984.423 166.077 981.569 172.223C980.85 173.776 979.904 175.237 978.774 176.581C996.824 173.407 1013.71 166.774 1031.3 159.872C1041.2 155.992 1051.44 151.97 1061.85 148.654C1078.2 143.448 1098.44 139.283 1110.09 153.389C1114.81 159.116 1115.94 165.951 1113.19 172.139C1112.46 173.785 1111.48 175.321 1110.3 176.74C1128.39 173.667 1145.28 167.034 1162.9 160.123C1173.1 156.118 1183.65 151.987 1194.4 148.629C1210.96 143.465 1231.44 139.359 1242.9 153.641C1247.57 159.477 1248.59 166.077 1245.72 172.231C1245 173.776 1244.07 175.237 1242.94 176.581C1260.99 173.407 1277.87 166.774 1295.46 159.872C1305.36 155.984 1315.6 151.97 1326.01 148.654C1335.6 145.598 1361.08 137.478 1374.23 153.389C1378.96 159.107 1380.11 165.934 1377.36 172.114C1376.53 173.978 1375.39 175.707 1373.98 177.278C1393.14 174.927 1412.68 169.309 1431.4 160.686C1433.31 159.813 1435.54 160.652 1436.41 162.55C1437.28 164.448 1436.45 166.698 1434.55 167.571C1408.26 179.679 1380.39 186.085 1353.95 186.102C1351.9 186.102 1350.22 184.457 1350.17 182.391C1350.13 180.334 1351.74 178.613 1353.8 178.529C1361.27 178.218 1368.12 174.314 1370.47 169.024C1372.04 165.472 1371.34 161.736 1368.43 158.217C1359.65 147.596 1342.36 151.383 1328.29 155.858C1318.12 159.099 1307.99 163.071 1298.21 166.916C1274.24 176.329 1249.46 186.052 1221.39 186.094L1221.41 186.111Z" fill="#0079FD" fill-opacity="0.1"/>
<path d="M1221.41 246.666C1219.34 246.666 1217.66 244.995 1217.63 242.921C1217.61 240.839 1219.26 239.135 1221.32 239.093C1229.15 238.925 1236.38 235.02 1238.89 229.596C1240.51 226.103 1239.88 222.518 1237.02 218.958C1228.42 208.235 1210.93 211.972 1196.65 216.43C1186.15 219.705 1175.73 223.794 1165.65 227.749C1141.99 237.035 1117.5 246.633 1089.82 246.675C1087.77 246.675 1086.09 245.029 1086.04 242.963C1086 240.898 1087.62 239.177 1089.67 239.101C1097.12 238.807 1103.96 234.911 1106.31 229.621C1107.89 226.061 1107.2 222.316 1104.29 218.79C1095.53 208.168 1078.24 211.964 1064.15 216.439C1053.96 219.68 1043.84 223.651 1034.05 227.497C1010.08 236.91 985.285 246.633 957.21 246.675C955.143 246.675 953.461 245.004 953.436 242.93C953.411 240.856 955.059 239.143 957.126 239.101C964.967 238.933 972.206 235.02 974.724 229.588C976.348 226.095 975.72 222.526 972.867 218.958C964.273 208.235 946.783 211.98 932.491 216.43C921.997 219.705 911.57 223.794 901.495 227.741C877.814 237.027 853.32 246.633 825.614 246.666C823.564 246.666 821.882 245.021 821.84 242.955C821.798 240.889 823.413 239.168 825.463 239.093C832.927 238.79 839.781 234.894 842.132 229.605C843.714 226.044 843.011 222.3 840.107 218.781C831.337 208.16 814.049 211.938 799.966 216.43C789.79 219.672 779.673 223.643 769.891 227.48C745.916 236.893 721.122 246.624 693.055 246.666C690.988 246.666 689.306 245.004 689.281 242.93C689.256 240.856 690.896 239.143 692.963 239.093C702.453 238.866 709.18 233.501 710.913 228.312C712.31 224.122 710.67 220.016 706.168 216.422C694.243 206.909 673.625 214.315 659.985 219.218L658.813 219.638C656.847 220.335 654.688 219.319 653.993 217.346C653.29 215.372 654.311 213.206 656.278 212.509L657.441 212.089C672.654 206.623 695.649 198.37 710.862 210.494C717.875 216.086 720.502 223.458 718.067 230.721C717.281 233.064 716.017 235.239 714.385 237.187C732.519 234.03 749.473 227.371 767.146 220.436C777.045 216.548 787.271 212.534 797.689 209.218C814.032 204.02 834.283 199.847 845.931 213.962C850.659 219.688 851.789 226.523 849.036 232.703C848.308 234.349 847.329 235.885 846.141 237.304C864.232 234.223 881.136 227.598 898.751 220.687C908.951 216.691 919.503 212.551 930.256 209.201C946.834 204.037 967.319 199.931 978.758 214.214C983.427 220.049 984.431 226.641 981.578 232.787C980.858 234.34 979.913 235.801 978.783 237.145C996.833 233.971 1013.72 227.338 1031.31 220.436C1041.21 216.548 1051.45 212.534 1061.86 209.218C1078.2 204.012 1098.45 199.847 1110.09 213.953C1114.82 219.68 1115.95 226.515 1113.2 232.711C1112.47 234.357 1111.49 235.894 1110.3 237.313C1128.39 234.239 1145.29 227.606 1162.91 220.696C1173.11 216.691 1183.66 212.56 1194.41 209.201C1210.97 204.037 1231.45 199.931 1242.9 214.214C1247.58 220.049 1248.59 226.649 1245.73 232.804C1245.01 234.349 1244.08 235.81 1242.95 237.153C1261 233.979 1277.88 227.346 1295.47 220.444C1305.37 216.556 1315.61 212.543 1326.02 209.218C1335.61 206.162 1361.09 198.042 1374.24 213.953C1378.97 219.671 1380.12 226.498 1377.37 232.678C1376.54 234.542 1375.4 236.271 1373.99 237.85C1393.15 235.499 1412.68 229.882 1431.41 221.258C1433.32 220.394 1435.55 221.225 1436.42 223.122C1437.29 225.02 1436.46 227.27 1434.56 228.144C1408.27 240.251 1380.39 246.658 1353.96 246.675C1351.91 246.675 1350.22 245.029 1350.18 242.963C1350.14 240.906 1351.75 239.185 1353.81 239.101C1361.28 238.79 1368.13 234.886 1370.48 229.596C1372.05 226.044 1371.35 222.308 1368.43 218.79C1359.66 208.168 1342.37 211.947 1328.3 216.43C1318.12 219.672 1308 223.643 1298.22 227.489C1274.25 236.901 1249.46 246.633 1221.4 246.666H1221.41Z" fill="#0079FD" fill-opacity="0.1"/>
<path d="M486.407 42.6566C484.34 42.6566 482.658 40.9857 482.633 38.9117C482.607 36.8294 484.256 35.1249 486.323 35.0829C494.147 34.915 501.377 31.0106 503.887 25.5865C505.511 22.0935 504.883 18.5082 502.021 14.9481C493.419 4.22574 475.93 7.96219 461.654 12.4207C451.152 15.6954 440.734 19.7845 430.65 23.7392C406.985 33.0258 382.5 42.623 354.819 42.665C352.769 42.665 351.087 41.0193 351.045 38.9537C351.003 36.8882 352.618 35.1669 354.668 35.0913C362.116 34.7974 368.961 30.8931 371.312 25.6117C372.894 22.0515 372.199 18.2983 369.287 14.7802C360.517 4.15857 343.229 7.9454 329.145 12.4291C318.962 15.6702 308.845 19.6417 299.054 23.4789C275.079 32.8914 250.285 42.6146 222.21 42.6566C220.143 42.6566 218.461 40.9857 218.436 38.9117C218.411 36.8378 220.059 35.1249 222.126 35.0829C229.967 34.915 237.205 31.0022 239.724 25.5697C241.348 22.0767 240.72 18.5082 237.867 14.9397C229.273 4.21734 211.783 7.95379 197.491 12.4123C186.997 15.687 176.57 19.7761 166.495 23.7224C142.814 33.009 118.32 42.6146 90.6137 42.6482C88.5635 42.6482 86.8815 41.0025 86.8397 38.9369C86.7979 36.8714 88.4129 35.1501 90.4631 35.0745C97.9274 34.7722 104.781 30.8763 107.132 25.5865C108.714 22.0263 108.011 18.2815 105.107 14.7634C96.3458 4.14178 79.049 7.9286 64.9656 12.4123C54.79 15.6534 44.6646 19.6249 34.8824 23.4705C10.9078 32.883 -13.8784 42.6062 -41.9449 42.6482C-44.0118 42.6482 -45.6938 40.9857 -45.7189 38.9117C-45.744 36.8378 -44.1038 35.1249 -42.0369 35.0745C-32.5475 34.8478 -25.8196 29.474 -24.0874 24.285C-22.6899 20.1035 -24.3301 15.9893 -28.8321 12.4039C-40.765 2.8907 -61.3588 10.2964 -74.9987 15.1916L-76.1786 15.6198C-78.1451 16.3083 -80.3041 15.3007 -81.007 13.3276C-81.7099 11.3544 -80.6806 9.18808 -78.7225 8.48277L-77.5426 8.06295C-62.3378 2.59682 -39.3508 -5.64856 -24.1376 6.47601C-17.1252 12.0681 -14.4976 19.4402 -16.9327 26.7032C-17.7193 29.0458 -18.9829 31.2289 -20.6147 33.1685C-2.48105 30.0114 14.4726 23.353 32.1376 16.4175C42.0371 12.5299 52.2712 8.51636 62.6811 5.19974C79.0239 -0.0144968 99.2746 -4.17077 110.923 9.94377C115.651 15.6702 116.781 22.5049 114.028 28.6848C113.3 30.3305 112.32 31.8671 111.132 33.2861C129.224 30.2045 146.127 23.5797 163.742 16.6694C173.943 12.6726 184.495 8.53315 195.248 5.18294C211.817 0.0190887 232.31 -4.0868 243.749 10.1957C248.419 16.0312 249.423 22.6225 246.569 28.7687C245.85 30.3221 244.904 31.7831 243.774 33.1265C261.824 29.9527 278.711 23.3194 296.301 16.4175C306.2 12.5383 316.443 8.51636 326.853 5.19974C343.195 -0.00610018 363.438 -4.17077 375.086 9.93537C379.814 15.6618 380.944 22.4965 378.191 28.6848C377.463 30.3305 376.484 31.8671 375.295 33.2861C393.387 30.2129 410.282 23.5797 427.897 16.6694C438.098 12.6642 448.65 8.53315 459.403 5.17455C475.963 0.0106921 496.44 -4.0952 507.896 10.1873C512.574 16.0228 513.586 22.6225 510.724 28.7771C510.005 30.3221 509.067 31.7831 507.938 33.1265C525.988 29.9527 542.874 23.3194 560.464 16.4175C570.363 12.5299 580.598 8.51636 591.007 5.19974C600.597 2.14341 626.078 -5.97602 639.233 9.93537C643.96 15.6534 645.107 22.4798 642.362 28.6596C641.534 30.5236 640.387 32.2533 638.981 33.8234C658.144 31.4724 677.675 25.8552 696.403 17.2319C698.311 16.3587 700.537 17.1984 701.407 19.096C702.278 20.9936 701.449 23.2438 699.55 24.1171C673.257 36.2248 645.391 42.6314 618.948 42.6482C616.898 42.6482 615.216 41.0025 615.174 38.9369C615.133 36.8798 616.739 35.1585 618.798 35.0745C626.27 34.7639 633.124 30.8595 635.467 25.5697C637.04 22.0179 636.337 18.2815 633.425 14.7634C624.647 4.14178 607.359 7.9286 593.292 12.4039C583.116 15.645 572.991 19.6165 563.209 23.4621C539.243 32.8746 514.456 42.5978 486.39 42.6398L486.407 42.6566Z" fill="#0079FD" fill-opacity="0.1"/>
<path d="M486.407 103.212C484.34 103.212 482.658 101.541 482.633 99.4673C482.607 97.385 484.256 95.6805 486.323 95.6385C494.147 95.4706 501.377 91.5662 503.887 86.1421C505.511 82.6491 504.883 79.0638 502.021 75.5037C493.419 64.7813 475.93 68.5178 461.654 72.9763C451.152 76.251 440.734 80.3401 430.65 84.2948C406.985 93.5814 382.5 103.179 354.819 103.221C352.769 103.221 351.087 101.575 351.045 99.5093C351.003 97.4438 352.618 95.7225 354.668 95.6469C362.116 95.353 368.961 91.4571 371.312 86.1673C372.894 82.6071 372.199 78.8623 369.287 75.3358C360.526 64.7142 343.237 68.5094 329.145 72.9847C318.962 76.2258 308.845 80.1973 299.054 84.0429C275.079 93.4554 250.285 103.179 222.21 103.221C220.143 103.221 218.461 101.55 218.436 99.4757C218.411 97.4018 220.059 95.6889 222.126 95.6469C229.967 95.479 237.206 91.5662 239.724 86.1337C241.348 82.6407 240.72 79.0722 237.867 75.5037C229.273 64.7813 211.783 68.5262 197.491 72.9763C186.997 76.251 176.571 80.3401 166.495 84.2864C142.814 93.573 118.32 103.179 90.6137 103.212C88.5636 103.212 86.8816 101.566 86.8398 99.5009C86.7979 97.4354 88.4129 95.7141 90.4631 95.6385C97.9274 95.3363 104.781 91.4403 107.132 86.1505C108.714 82.5903 108.011 78.8455 105.107 75.3274C96.3375 64.7058 79.0491 68.4842 64.9656 72.9763C54.7901 76.2174 44.673 80.1889 34.8908 84.0262C10.9163 93.4386 -13.8783 103.17 -41.9448 103.212C-44.0117 103.212 -45.6937 101.55 -45.7188 99.4757C-45.7439 97.4018 -44.1038 95.6889 -42.0369 95.6385C-32.5475 95.4118 -25.8195 90.0464 -24.0874 84.8574C-22.6899 80.6675 -24.33 76.5617 -28.8321 72.9679C-40.7565 63.4547 -61.3755 70.8604 -75.0154 75.764L-76.1869 76.1838C-78.1534 76.8807 -80.3124 75.8647 -81.007 73.8916C-81.7099 71.9184 -80.689 69.7521 -78.7225 69.0552L-77.5593 68.6353C-62.3462 63.1692 -39.3507 54.9154 -24.1376 67.04C-17.1251 72.6321 -14.4976 80.0042 -16.9327 87.2672C-17.7193 89.6098 -18.9828 91.7845 -20.6146 93.7325C-2.48101 90.5754 14.4727 83.917 32.1461 76.9815C42.0455 73.0939 52.2713 69.0804 62.6895 65.7637C79.0323 60.5663 99.2831 56.3932 110.931 70.5078C115.659 76.2342 116.789 83.0689 114.036 89.2488C113.308 90.8945 112.329 92.4311 111.141 93.8501C129.232 90.7685 146.136 84.1437 163.751 77.2334C173.951 73.2366 184.503 69.0972 195.256 65.7469C211.834 60.5831 232.319 56.4772 243.758 70.7597C248.427 76.5952 249.431 83.1865 246.578 89.3327C245.858 90.8861 244.913 92.3471 243.783 93.6905C261.833 90.5167 278.72 83.8834 296.309 76.9815C306.209 73.0939 316.451 69.0804 326.861 65.7637C343.204 60.5579 363.446 56.3932 375.095 70.4994C379.822 76.2258 380.952 83.0606 378.199 89.2572C377.471 90.9029 376.492 92.4394 375.304 93.8585C393.387 90.7853 410.291 84.1521 427.905 77.2418C438.106 73.2366 448.658 69.1056 459.411 65.7469C475.972 60.5831 496.448 56.4772 507.904 70.7597C512.582 76.5952 513.594 83.1949 510.733 89.3495C510.013 90.8945 509.076 92.3555 507.946 93.6989C525.996 90.525 542.883 83.8918 560.472 76.9899C570.372 73.1023 580.606 69.0888 591.016 65.7637C600.606 62.7074 626.086 54.588 639.241 70.4994C643.969 76.2174 645.115 83.0438 642.371 89.2236C641.542 91.0876 640.396 92.8173 638.99 94.3958C658.153 92.0448 677.684 86.4276 696.412 77.8043C698.319 76.9395 700.545 77.7707 701.416 79.6684C702.286 81.566 701.458 83.8162 699.558 84.6895C673.266 96.7972 645.391 103.204 618.957 103.221C616.907 103.221 615.225 101.575 615.183 99.5093C615.141 97.4522 616.748 95.7309 618.806 95.6469C626.279 95.3362 633.132 91.4319 635.475 86.1421C637.049 82.5903 636.346 78.8539 633.434 75.3358C624.655 64.7142 607.367 68.4926 593.3 72.9763C583.125 76.2174 572.999 80.1889 563.217 84.0345C539.251 93.447 514.465 103.179 486.398 103.212H486.407Z" fill="#0079FD" fill-opacity="0.1"/>
<path d="M1263.41 50.7191C1261.34 50.7191 1259.66 49.0482 1259.63 46.9742C1259.61 44.8919 1261.26 43.1874 1263.32 43.1454C1271.15 42.9775 1278.38 39.0731 1280.89 33.649C1282.51 30.156 1281.88 26.5707 1279.02 23.0106C1270.42 12.2882 1252.93 16.0247 1238.65 20.4832C1228.15 23.7579 1217.73 27.847 1207.65 31.8017C1183.99 41.0883 1159.5 50.6855 1131.82 50.7275C1129.77 50.7275 1128.09 49.0818 1128.04 47.0162C1128 44.9507 1129.62 43.2294 1131.67 43.1538C1139.12 42.8599 1145.96 38.9556 1148.31 33.6742C1149.89 30.114 1149.2 26.3608 1146.29 22.8427C1137.52 12.2211 1120.23 16.0079 1106.15 20.4916C1095.96 23.7327 1085.84 27.7042 1076.05 31.5414C1052.08 40.9539 1027.28 50.6771 999.21 50.7191C997.143 50.7191 995.461 49.0482 995.436 46.9742C995.411 44.9003 997.059 43.1874 999.126 43.1454C1006.97 42.9775 1014.21 39.0647 1016.72 33.6322C1018.35 30.1392 1017.72 26.5707 1014.87 23.0022C1006.27 12.2798 988.783 16.0163 974.491 20.4748C963.997 23.7495 953.57 27.8386 943.495 31.7849C919.814 41.0715 895.32 50.6771 867.614 50.7107C865.564 50.7107 863.882 49.065 863.84 46.9994C863.798 44.9339 865.413 43.2126 867.463 43.137C874.927 42.8347 881.781 38.9388 884.132 33.649C885.714 30.0888 885.011 26.344 882.107 22.8259C873.346 12.2043 856.049 15.9911 841.966 20.4748C831.79 23.7159 821.665 27.6874 811.882 31.533C787.908 40.9455 763.122 50.6687 735.055 50.7107C732.988 50.7107 731.306 49.0482 731.281 46.9742C731.256 44.9003 732.896 43.1874 734.963 43.137C744.453 42.9103 751.18 37.5366 752.913 32.3475C754.31 28.166 752.67 24.0518 748.168 20.4664C736.235 10.9532 715.641 18.3589 702.001 23.2541L700.821 23.6823C698.855 24.3708 696.696 23.3632 695.993 21.3901C695.29 19.4169 696.319 17.2506 698.278 16.5453L699.457 16.1254C714.662 10.6593 737.649 2.41395 752.862 14.5385C759.875 20.1306 762.502 27.5027 760.067 34.7657C759.281 37.1083 758.017 39.2914 756.385 41.231C774.519 38.0739 791.473 31.4155 809.138 24.48C819.037 20.5924 829.271 16.5789 839.681 13.2622C856.024 8.048 876.275 3.89173 887.923 18.0063C892.651 23.7327 893.781 30.5674 891.028 36.7473C890.299 38.393 889.32 39.9296 888.132 41.3486C906.224 38.267 923.127 31.6422 940.742 24.7319C950.943 20.7351 961.495 16.5957 972.248 13.2454C988.817 8.08159 1009.31 3.9757 1020.75 18.2582C1025.42 24.0937 1026.42 30.685 1023.57 36.8312C1022.85 38.3846 1021.9 39.8456 1020.77 41.189C1038.82 38.0152 1055.71 31.3819 1073.3 24.48C1083.2 20.6008 1093.44 16.5789 1103.85 13.2622C1120.2 8.0564 1140.44 3.89173 1152.09 17.9979C1156.81 23.7243 1157.94 30.5591 1155.19 36.7473C1154.46 38.393 1153.48 39.9296 1152.3 41.3486C1170.39 38.2754 1187.28 31.6422 1204.9 24.7319C1215.1 20.7267 1225.65 16.5957 1236.4 13.237C1252.96 8.07319 1273.44 3.9673 1284.9 18.2498C1289.57 24.0853 1290.59 30.685 1287.72 36.8396C1287 38.3846 1286.07 39.8456 1284.94 41.189C1302.99 38.0152 1319.87 31.3819 1337.46 24.48C1347.36 20.5924 1357.6 16.5789 1368.01 13.2622C1377.6 10.2059 1403.08 2.08648 1416.23 17.9979C1420.96 23.7159 1422.11 30.5423 1419.36 36.7221C1418.53 38.5861 1417.39 40.3158 1415.98 41.8859C1435.14 39.5349 1454.68 33.9177 1473.4 25.2944C1475.31 24.4212 1477.54 25.2609 1478.41 27.1585C1479.28 29.0561 1478.45 31.3063 1476.55 32.1796C1450.26 44.2873 1422.39 50.6939 1395.95 50.7107C1393.9 50.7107 1392.22 49.065 1392.17 46.9994C1392.13 44.9423 1393.74 43.221 1395.8 43.137C1403.27 42.8264 1410.12 38.922 1412.47 33.6322C1414.04 30.0804 1413.34 26.344 1410.43 22.8259C1401.65 12.2043 1384.36 15.9911 1370.29 20.4664C1360.12 23.7075 1349.99 27.679 1340.21 31.5246C1316.24 40.9371 1291.46 50.6603 1263.39 50.7023L1263.41 50.7191Z" fill="#0079FD" fill-opacity="0.1"/>
<path d="M1263.41 111.275C1261.34 111.275 1259.66 109.604 1259.63 107.53C1259.61 105.447 1261.26 103.743 1263.32 103.701C1271.15 103.533 1278.38 99.6287 1280.89 94.2046C1282.51 90.7116 1281.88 87.1263 1279.02 83.5662C1270.42 72.8438 1252.93 76.5803 1238.65 81.0388C1228.15 84.3135 1217.73 88.4026 1207.65 92.3573C1183.99 101.644 1159.5 111.241 1131.82 111.283C1129.77 111.283 1128.09 109.637 1128.04 107.572C1128 105.506 1129.62 103.785 1131.67 103.709C1139.12 103.416 1145.96 99.5196 1148.31 94.2298C1149.89 90.6696 1149.2 86.9248 1146.29 83.3983C1137.53 72.7767 1120.24 76.5719 1106.15 81.0472C1095.96 84.2883 1085.84 88.2598 1076.05 92.1054C1052.08 101.518 1027.28 111.241 999.21 111.283C997.143 111.283 995.461 109.612 995.436 107.538C995.411 105.464 997.059 103.751 999.126 103.709C1006.97 103.541 1014.21 99.6287 1016.72 94.1962C1018.35 90.7032 1017.72 87.1347 1014.87 83.5662C1006.27 72.8438 988.783 76.5887 974.491 81.0388C963.997 84.3135 953.57 88.4026 943.495 92.3489C919.814 101.635 895.32 111.241 867.614 111.275C865.564 111.275 863.882 109.629 863.84 107.563C863.798 105.498 865.413 103.777 867.463 103.701C874.927 103.399 881.781 99.5028 884.132 94.213C885.714 90.6528 885.011 86.908 882.107 83.3899C873.337 72.7683 856.049 76.5467 841.966 81.0388C831.79 84.2799 821.673 88.2514 811.891 92.0887C787.916 101.501 763.122 111.233 735.055 111.275C732.988 111.275 731.306 109.612 731.281 107.538C731.256 105.464 732.896 103.751 734.963 103.701C744.453 103.474 751.18 98.1089 752.913 92.9199C754.31 88.73 752.67 84.6242 748.168 81.0304C736.243 71.5172 715.625 78.9229 701.985 83.8265L700.813 84.2463C698.847 84.9432 696.688 83.9272 695.993 81.9541C695.29 79.9809 696.311 77.8146 698.278 77.1177L699.441 76.6978C714.654 71.2317 737.649 62.9779 752.862 75.1025C759.875 80.6946 762.502 88.0667 760.067 95.3297C759.281 97.6723 758.017 99.847 756.385 101.795C774.519 98.6379 791.473 91.9795 809.146 85.044C819.045 81.1564 829.271 77.1429 839.689 73.8262C856.032 68.6288 876.283 64.4557 887.931 78.5703C892.659 84.2967 893.789 91.1314 891.036 97.3113C890.308 98.957 889.329 100.494 888.141 101.913C906.232 98.831 923.136 92.2062 940.751 85.2959C950.951 81.2991 961.503 77.1597 972.256 73.8094C988.834 68.6456 1009.32 64.5397 1020.76 78.8222C1025.43 84.6577 1026.43 91.249 1023.58 97.3952C1022.86 98.9486 1021.91 100.41 1020.78 101.753C1038.83 98.5792 1055.72 91.9459 1073.31 85.044C1083.21 81.1564 1093.45 77.1429 1103.86 73.8262C1120.2 68.6204 1140.45 64.4557 1152.09 78.5619C1156.82 84.2883 1157.95 91.1231 1155.2 97.3197C1154.47 98.9654 1153.49 100.502 1152.3 101.921C1170.39 98.8478 1187.29 92.2146 1204.91 85.3043C1215.11 81.2991 1225.66 77.1681 1236.41 73.8094C1252.97 68.6456 1273.45 64.5397 1284.9 78.8222C1289.58 84.6577 1290.59 91.2574 1287.73 97.412C1287.01 98.957 1286.08 100.418 1284.95 101.761C1303 98.5875 1319.88 91.9543 1337.47 85.0524C1347.37 81.1648 1357.61 77.1513 1368.02 73.8262C1377.61 70.7699 1403.09 62.6505 1416.24 78.5619C1420.97 84.2799 1422.12 91.1063 1419.37 97.2861C1418.54 99.1501 1417.4 100.88 1415.99 102.458C1435.15 100.107 1454.68 94.4901 1473.41 85.8668C1475.32 85.002 1477.55 85.8332 1478.42 87.7309C1479.29 89.6285 1478.46 91.8787 1476.56 92.752C1450.27 104.86 1422.39 111.266 1395.96 111.283C1393.91 111.283 1392.22 109.637 1392.18 107.572C1392.14 105.515 1393.75 103.793 1395.81 103.709C1403.28 103.399 1410.13 99.4944 1412.48 94.2046C1414.05 90.6528 1413.35 86.9164 1410.43 83.3983C1401.66 72.7767 1384.37 76.5551 1370.3 81.0388C1360.12 84.2799 1350 88.2514 1340.22 92.097C1316.25 101.51 1291.46 111.241 1263.4 111.275H1263.41Z" fill="#0079FD" fill-opacity="0.1"/>
</svg>
